<svg width="210" height="90" viewBox="0 0 210 90" fill="none" xmlns="http://www.w3.org/2000/svg">
<g clip-path="url(#clip0_1805_937)">
<rect width="210" height="90" rx="2" fill="url(#paint0_radial_1805_937)"/>
<path d="M182.403 82.5163L180.176 82.5161L179.117 73.875L182.403 73.8752L182.403 82.5163Z" fill="#FFB6B6"/>
<path d="M182.969 84.688L175.791 84.6877V84.5963C175.791 83.8506 176.085 83.1355 176.609 82.6083C177.133 82.081 177.844 81.7848 178.585 81.7847H178.585L179.896 80.7837L182.343 81.7849L182.969 81.7849L182.969 84.688Z" fill="#2F2E41"/>
<path d="M218.361 74.3444L216.844 75.9832L209.84 70.8712L212.08 68.4526L218.361 74.3444Z" fill="#FFB6B6"/>
<path d="M215.068 69.4884L212.715 74.4409L198.266 64.8135L196.164 61.9313L189.272 52.481L186.47 56.9547L184.521 61.6314C183.885 62.0484 183.35 62.6022 182.953 63.2528C182.557 63.9035 182.308 64.6346 182.227 65.3935L182.137 66.2215L183.369 77.3657L178.687 78.8125L175.998 63.8417L176.877 60.5977L177.782 56.044L182.339 41.6543H194.532L201.525 56.6345L202.036 59.6869L204.019 61.977L215.068 69.4884Z" fill="#2F2E41"/>
<path d="M191.779 19.6842L189.727 18.1113L185.572 18.369L184.763 20.329L182.74 21.0727L181.574 26.9904L181.55 27.8023C181.55 27.8023 181.291 31.0334 181.291 32.6667V40.5094C181.184 40.7312 181.156 40.983 181.211 41.223C185.521 45.1027 190.887 45.0138 197.111 41.6982C197.111 41.6982 196.661 39.2272 196.476 38.0218C196.29 36.8164 197.122 36.7914 196.2 35.8635C195.278 34.9356 194.254 20.4497 194.254 20.4497L191.779 19.6842Z" fill="#3F3D56"/>
<path d="M191.015 43.8576C191.006 43.5959 191.053 43.3355 191.155 43.0945C191.257 42.8536 191.41 42.638 191.603 42.4629C191.797 42.2879 192.026 42.1576 192.275 42.0813C192.523 42.0051 192.786 41.9846 193.043 42.0215L195.936 36.3633L197.548 39.2448L194.554 44.1762C194.463 44.6074 194.219 44.9905 193.867 45.2526C193.515 45.5148 193.08 45.6379 192.644 45.5986C192.207 45.5594 191.801 45.3604 191.5 45.0395C191.2 44.7187 191.027 44.2981 191.015 43.8576Z" fill="#FFB6B6"/>
<path d="M195.887 42.4732L202.091 32.7962L202.071 32.7517C202.047 32.7007 200.642 29.647 199.281 26.8501C199.071 26.4194 198.863 25.9948 198.66 25.5881C198.573 25.4126 198.487 25.2408 198.402 25.0726C197.83 23.9382 197.331 23.0007 197.033 22.5553C196.373 21.5483 195.391 20.7986 194.25 20.4308L194.221 20.4233L194.193 20.4348C193.635 20.6719 193.174 21.0934 192.885 21.6297C192.597 22.166 192.499 22.7852 192.607 23.3852C193.146 26.2791 194.345 29.0075 196.11 31.3551L197.116 32.6892L193.621 40.3368L195.887 42.4732Z" fill="#3F3D56"/>
<path d="M174.552 5.37965C174.723 5.57705 174.848 5.80974 174.92 6.06134C174.992 6.31293 175.008 6.57732 174.967 6.83586C174.927 7.09441 174.83 7.34083 174.685 7.55777C174.539 7.77471 174.348 7.95688 174.125 8.09147L175.418 14.32L172.363 13.1028L171.603 7.37466C171.404 6.98249 171.354 6.53017 171.463 6.10343C171.572 5.67668 171.834 5.30515 172.197 5.05923C172.56 4.81332 173.001 4.71011 173.435 4.76917C173.869 4.82822 174.266 5.04544 174.552 5.37965Z" fill="#FFB6B6"/>
<path d="M171.633 9.54199L172.868 20.9912L172.912 21.0128C172.948 21.0306 174.513 21.8032 176.435 22.7233C176.759 22.8785 177.233 23.1 177.233 23.1C177.233 23.1 177.9 23.4206 178.136 23.5315C180.236 24.5198 182.36 25.4808 183.206 25.7412C184.349 26.1055 185.581 26.0656 186.697 25.6281L186.724 25.6157L186.738 25.5893C187.024 25.0514 187.118 24.4317 187.007 23.8323C186.895 23.233 186.584 22.6898 186.124 22.2923C183.896 20.3853 181.257 19.0257 178.416 18.3208L176.8 17.9217L174.73 9.76581L171.633 9.54199Z" fill="#3F3D56"/>
<path d="M187.542 17.4625C189.785 17.4625 191.602 15.6332 191.602 13.3767C191.602 11.1203 189.785 9.29102 187.542 9.29102C185.3 9.29102 183.482 11.1203 183.482 13.3767C183.482 15.6332 185.3 17.4625 187.542 17.4625Z" fill="#FFB6B6"/>
<path d="M183.51 10.6385C183.844 9.66104 185.506 8.98304 188.201 8.88876C190.896 8.79449 191.579 11.99 191.579 11.99C193.378 13.4584 189.658 17.3897 189.478 17.2482L189.559 16.5095C189.693 15.2861 190.262 14.3315 189.538 13.0565L188.843 13.0645C187.945 13.2382 187.047 13.412 186.149 13.5857L187.212 12.6439L187.183 12.5972C186.73 12.8342 186.238 12.9845 185.731 13.0406C185.16 13.0744 184.536 12.8455 184.262 12.3397C184.189 12.2007 184.144 12.0483 184.131 11.8916C183.36 12.2014 183.008 13.1572 183.008 13.1572C183.008 13.1572 183.177 11.6161 183.51 10.6385Z" fill="#2F2E41"/>
<circle cx="209.306" cy="88.3055" r="35" transform="rotate(-0.502517 209.306 88.3055)" fill="#FD652E" fill-opacity="0.8"/>
<mask id="mask0_1805_937" style="mask-type:alpha" maskUnits="userSpaceOnUse" x="186" y="66" width="17" height="17">
<rect x="186" y="66" width="16.6103" height="16.6103" fill="#D9D9D9"/>
</mask>
<g mask="url(#mask0_1805_937)">
<path d="M197.838 74.74H189.55C189.425 74.74 189.321 74.6988 189.239 74.6165C189.156 74.5342 189.115 74.4305 189.115 74.3052C189.115 74.1798 189.156 74.076 189.239 73.9937C189.321 73.9115 189.425 73.8704 189.55 73.8704H197.838L193.996 70.0329C193.913 69.9465 193.871 69.8454 193.868 69.7296C193.866 69.6137 193.91 69.5114 194 69.4224C194.09 69.3334 194.192 69.2883 194.306 69.2871C194.42 69.2859 194.522 69.3303 194.612 69.4205L199.118 73.9268C199.175 73.9833 199.216 74.0422 199.242 74.1034C199.267 74.1648 199.28 74.2322 199.28 74.3057C199.28 74.3793 199.267 74.4465 199.242 74.5074C199.216 74.5684 199.175 74.6271 199.118 74.6836L194.612 79.1898C194.529 79.2732 194.429 79.316 194.312 79.3182C194.195 79.3204 194.091 79.2776 194 79.1898C193.91 79.0984 193.865 78.9954 193.865 78.881C193.865 78.7666 193.91 78.6657 194 78.5784L197.838 74.74Z" fill="white"/>
</g>
<circle cx="11.3056" cy="-0.694542" r="35" transform="rotate(-0.502517 11.3056 -0.694542)" fill="#FD652E" fill-opacity="0.8"/>
<path d="M19.3573 15.3921C19.3022 15.3218 19.2429 15.255 19.1797 15.192C19.1951 15.1707 19.2106 15.1473 19.226 15.126L19.3573 15.3921Z" fill="#2F2E41"/>
<path d="M20.1475 31.8248C19.4833 33.0119 18.157 33.6744 16.8422 33.9989C15.3655 34.3881 13.8104 34.3579 12.3497 33.9114C12.1643 33.8512 11.979 33.7813 11.7995 33.7036C11.8858 33.4729 11.9542 33.2358 12.0041 32.9944C12.0713 32.6678 12.1049 32.3351 12.1045 32.0016C11.9582 32.2889 11.7687 32.5517 11.5427 32.7807C11.3683 32.965 11.1703 33.1251 10.9538 33.2567C10.2825 32.8466 9.7011 32.3033 9.24525 31.6597C9.2742 31.5878 9.30317 31.5159 9.33019 31.444C9.47039 31.0686 9.58141 30.6827 9.66225 30.29C9.77195 29.7589 9.82694 29.2179 9.82636 28.6755C9.58832 29.1428 9.27959 29.5702 8.91124 29.9422C8.8008 30.0611 8.68348 30.1733 8.55988 30.2783C8.36846 29.6933 8.29447 29.0759 8.34219 28.4619C8.38991 27.8478 8.55841 27.2495 8.83788 26.7015C9.60241 25.2794 11.0851 24.4342 12.4057 23.5153C13.7281 22.5963 15.0506 21.3529 15.1626 19.7384C15.2379 18.6484 14.7359 17.5565 14.9367 16.4841C15.0212 16.0319 15.2273 15.6116 15.5327 15.2691C15.8381 14.9266 16.2311 14.6751 16.6687 14.5418C17.1064 14.4086 17.572 14.3987 18.0149 14.5134C18.4577 14.6281 18.8608 14.8628 19.1802 15.1921C18.4311 16.2607 17.6859 17.3662 17.3828 18.6368C17.0739 19.9307 17.3268 21.4481 18.3404 22.3049C18.6879 22.6002 19.1146 22.81 19.383 23.1791C19.7401 23.6688 19.742 24.3215 19.8 24.9238C19.9158 26.0954 20.2961 27.2222 20.5008 28.3821C20.7074 29.54 20.7189 30.7971 20.1475 31.8248Z" fill="#2F2E41"/>
<path d="M6.5332 80.004L8.29526 81.374L14.3849 75.1866L11.7842 73.1646L6.5332 80.004Z" fill="#A0616A"/>
<path d="M6.60793 78.665L9.5217 80.6636L8.59961 81.8645L9.83453 85.764C9.89555 85.9566 9.89379 86.1638 9.82952 86.3553C9.76525 86.5468 9.64182 86.7126 9.47726 86.8286C9.31271 86.9445 9.11564 87.0044 8.91482 86.9997C8.714 86.9949 8.51996 86.9257 8.36102 86.8021L5.045 84.2236L5.38553 82.5913L4.25027 83.6056L3 82.6334L6.60793 78.665Z" fill="#2F2E41"/>
<path d="M15.4727 18.8434C15.4724 19.5362 15.6411 20.2185 15.9641 20.8303C16.287 21.4422 16.7543 21.9649 17.3248 22.3526C17.8953 22.7403 18.5517 22.9811 19.2363 23.0539C19.921 23.1268 20.6129 23.0293 21.2514 22.7702C21.8898 22.5111 22.4554 22.0983 22.8983 21.5679C23.3412 21.0375 23.6479 20.4058 23.7916 19.7283C23.9353 19.0507 23.9115 18.3481 23.7223 17.6819C23.5331 17.0158 23.1843 16.4066 22.7066 15.9078L22.6864 15.8875C22.6528 15.8519 22.6191 15.8164 22.5838 15.7825L22.5831 15.7824L22.5826 15.782L22.5822 15.7815L22.5821 15.7808C22.5384 15.7402 22.4946 15.6996 22.4492 15.6606C21.709 15.0072 20.6686 14.2979 19.6071 14.2979C17.2838 14.2979 15.4727 16.5054 15.4727 18.8434Z" fill="#2F2E41"/>
<path d="M39.4434 16.6702C39.4636 16.8959 39.4343 17.1233 39.3576 17.3364C39.281 17.5496 39.1588 17.7432 38.9997 17.9036C38.8407 18.0641 38.6486 18.1875 38.437 18.2652C38.2254 18.3429 37.9995 18.3729 37.7752 18.3532L27.3606 27.816L25.5684 24.9675L36.3691 16.5616C36.427 16.1844 36.6203 15.8418 36.9124 15.5985C37.2046 15.3553 37.5752 15.2283 37.9542 15.2417C38.3332 15.2551 38.6941 15.4079 38.9685 15.6711C39.243 15.9344 39.412 16.2899 39.4434 16.6702Z" fill="#A0616A"/>
<path d="M22.9107 30.6723C22.9107 30.6723 23.2981 31.3925 24.6218 30.2805C25.6815 29.3902 30.7583 25.5251 31.852 23.9412C32.1017 24.0408 32.3773 24.0539 32.6353 23.9786C32.8932 23.9032 33.119 23.7436 33.2769 23.5249L30.2802 20.8838C29.3835 20.9877 29.4028 21.5938 29.4961 21.9379L27.2357 22.9686L21.3984 26.7226L22.6214 30.1567L22.9107 30.6723Z" fill="#F59E0B"/>
<path d="M17.2572 37.3074L17.0389 38.3535L16.8535 42.2121L25.0138 42.6635L24.7604 36.7287L23.9694 35.4209L17.2572 37.3074Z" fill="#A0616A"/>
<path d="M20.7162 23.372C22.6639 23.372 24.2429 21.7831 24.2429 19.823C24.2429 17.8629 22.6639 16.2739 20.7162 16.2739C18.7684 16.2739 17.1895 17.8629 17.1895 19.823C17.1895 21.7831 18.7684 23.372 20.7162 23.372Z" fill="#A0616A"/>
<path d="M14.4533 32.9131L14.4316 29.963C14.4311 28.9015 14.7881 27.8712 15.4443 27.0401C16.1005 26.209 17.0171 25.6262 18.0448 25.3867L18.0581 25.3836L18.7554 24.438L21.5887 24.7232L22.108 25.7913L24.161 27.0215L24.9515 29.5786C25.2943 29.8085 25.5865 30.107 25.8099 30.4554C26.0333 30.8038 26.1831 31.1947 26.25 31.6039C26.5184 33.3289 25.3182 35.0549 25.1754 35.2528L24.8076 37.3376L16.8054 38.7585L16.7405 38.7667L14.4533 32.9131Z" fill="#F59E0B"/>
<path d="M25.0305 19.1901C24.6191 19.4523 24.1923 19.6891 23.7524 19.8992C23.3059 20.1151 22.8389 20.285 22.3585 20.4063C22.221 20.1028 22.0528 19.8144 21.8565 19.5456C21.907 19.8641 21.9083 20.1885 21.8604 20.5073C21.0641 20.6366 20.2485 20.5693 19.4838 20.3111L18.8197 19.1901L18.7695 20.4413C18.2192 20.5423 17.6709 20.6375 17.1207 20.7366C17.0879 20.7405 17.0551 20.7483 17.0242 20.7541C16.6824 19.2037 17.167 17.4959 18.2443 16.4624C18.7792 15.9545 19.4464 15.6101 20.1683 15.4691C20.8902 15.328 21.637 15.3963 22.3218 15.6658C22.4087 15.7008 22.4975 15.7396 22.5824 15.7804L22.5826 15.7812L22.583 15.7818L22.5836 15.7822L22.5844 15.7824C22.6346 15.8076 22.677 15.8678 22.733 15.862C25.1424 15.5919 25.2197 17.4726 25.0305 19.1901Z" fill="#2F2E41"/>
<path d="M19.1621 75.4277L20.9269 76.794L27.0042 70.5942L24.3996 68.5776L19.1621 75.4277Z" fill="#A0616A"/>
<path d="M19.3968 74.2124L22.3146 76.205L21.3949 77.4078L22.6377 81.3048C22.6991 81.4973 22.6977 81.7044 22.6338 81.8961C22.57 82.0877 22.4469 82.2538 22.2825 82.3701C22.1182 82.4863 21.9213 82.5467 21.7204 82.5423C21.5196 82.538 21.3254 82.4691 21.1662 82.3458L17.8451 79.7741L18.1823 78.1411L17.0491 79.1577L15.7969 78.1881L19.3968 74.2124Z" fill="#2F2E41"/>
<path d="M13.4368 67.8614L13.4367 67.8383L14.2731 66.3879L13.4191 64.4998L13.3935 59.6491L13.5319 58.9209C13.7181 57.9415 13.6639 56.9312 13.3741 55.9777L13.3585 53.025C13.3285 52.2854 14.4671 51.6348 14.2016 51.0182C11.6918 45.1896 16.7645 40.7433 16.7988 40.7076L16.9024 40.5991L17.4649 41.0278L18.0002 41.0285L25.2243 42.3532L25.2765 42.451C25.5606 42.9874 26.109 44.836 26.1415 45.6726C26.5015 46.092 30.6026 50.8677 30.9672 51.1995C33.4308 53.4427 34.8413 57.1554 35.4628 59.169C35.6171 59.6666 35.6482 60.1946 35.5534 60.7071C35.4586 61.2196 35.2407 61.701 34.9187 62.1093L25.5922 72.3895L23.0824 70.0581L28.1289 60.8041L27.765 59.8652C27.112 59.7439 26.5211 59.3985 26.0931 58.8877L25.0712 57.6671C24.7883 57.3301 24.6085 56.9178 24.5536 56.4801L23.9339 56.405L21.7142 54.0597L20.1741 68.0945L19.7554 69.2032L12.464 77.8295L9.375 75.8866L13.4368 67.8614Z" fill="#2F2E41"/>
<path d="M12.3222 7.59714C12.1821 7.77461 12.0824 7.98083 12.0301 8.20127C11.9778 8.42172 11.9741 8.65104 12.0194 8.87306C12.0647 9.09508 12.1577 9.30441 12.2921 9.4863C12.4265 9.6682 12.5988 9.81824 12.797 9.92585L10.4785 16.8333L12.3717 24.1533L15.4245 22.7644L13.5407 17.2431L14.9501 9.20646C15.1077 8.85938 15.1333 8.46619 15.022 8.1014C14.9107 7.7366 14.6704 7.42555 14.3465 7.22718C14.0225 7.02881 13.6376 6.9569 13.2645 7.02509C12.8914 7.09328 12.5561 7.29681 12.3222 7.59714Z" fill="#A0616A"/>
<path d="M15.1192 30.1846C15.1192 30.1846 14.4022 30.5721 13.9035 28.911C13.5043 27.5812 10.7875 20.3609 10.7385 18.4329C10.4755 18.378 10.2381 18.2365 10.0637 18.0309C9.88934 17.8253 9.78791 17.5671 9.77539 17.2971L13.7213 16.7476C14.4137 17.3302 14.0666 17.826 13.8007 18.0618L15.1447 20.3527L17.9537 26.5372L15.6424 29.9138L15.1192 30.1846Z" fill="#F59E0B"/>
<path d="M17.1211 20.7363C17.5263 19.5066 18.2529 18.4092 19.2247 17.5594C20.1964 16.7096 21.3776 16.1386 22.6441 15.9063C22.6492 15.9046 22.666 15.8978 22.6879 15.8877C22.7013 15.8792 22.7181 15.8707 22.735 15.8623C22.6845 15.8335 22.6357 15.8081 22.5852 15.7827L22.5846 15.7826L22.584 15.7822L22.5837 15.7816L22.5836 15.781C22.5398 15.7404 22.4961 15.6997 22.4507 15.6608L22.3228 15.6659C22.3228 15.6659 17.8294 14.9498 17.1211 20.7363Z" fill="#FD6584"/>
<path d="M39 45.5H171C171.828 45.5 172.5 46.1716 172.5 47V79C172.5 79.8284 171.828 80.5 171 80.5H39C38.1716 80.5 37.5 79.8284 37.5 79V47C37.5 46.1716 38.1716 45.5 39 45.5Z" fill="white"/>
<path d="M39 45.5H171C171.828 45.5 172.5 46.1716 172.5 47V79C172.5 79.8284 171.828 80.5 171 80.5H39C38.1716 80.5 37.5 79.8284 37.5 79V47C37.5 46.1716 38.1716 45.5 39 45.5Z" stroke="url(#paint1_linear_1805_937)"/>
<path d="M44.375 59.7V61.545H43.8V60.255H43.16V59.7H44.375ZM44.375 61.305C44.475 61.475 44.6117 61.5983 44.785 61.675C44.9617 61.7517 45.1767 61.795 45.43 61.805C45.58 61.8117 45.76 61.8167 45.97 61.82C46.18 61.82 46.4 61.8183 46.63 61.815C46.8633 61.8117 47.0917 61.8067 47.315 61.8C47.5383 61.79 47.7367 61.7767 47.91 61.76C47.8867 61.8033 47.8617 61.8617 47.835 61.935C47.8117 62.005 47.79 62.0767 47.77 62.15C47.75 62.2233 47.7333 62.2883 47.72 62.345C47.5667 62.355 47.39 62.3617 47.19 62.365C46.99 62.3683 46.7833 62.37 46.57 62.37C46.3567 62.3733 46.15 62.3733 45.95 62.37C45.7533 62.37 45.5783 62.3667 45.425 62.36C45.125 62.3467 44.87 62.2983 44.66 62.215C44.4533 62.1317 44.275 61.9933 44.125 61.8C44.0083 61.9 43.8883 61.9983 43.765 62.095C43.645 62.195 43.515 62.2983 43.375 62.405L43.095 61.805C43.215 61.7383 43.3417 61.6617 43.475 61.575C43.6083 61.4883 43.735 61.3983 43.855 61.305H44.375ZM43.235 58.24L43.645 57.855C43.7517 57.925 43.86 58.0067 43.97 58.1C44.0833 58.19 44.19 58.2817 44.29 58.375C44.39 58.465 44.4683 58.55 44.525 58.63L44.075 59.06C44.025 58.98 43.9533 58.8917 43.86 58.795C43.7667 58.6983 43.665 58.6017 43.555 58.505C43.445 58.405 43.3383 58.3167 43.235 58.24ZM45.255 58.725L45.64 58.405C45.7867 58.455 45.9483 58.5167 46.125 58.59C46.3017 58.66 46.4717 58.7333 46.635 58.81C46.8017 58.8867 46.94 58.9567 47.05 59.02L46.64 59.38C46.54 59.3133 46.41 59.2417 46.25 59.165C46.0933 59.0883 45.9267 59.0117 45.75 58.935C45.5733 58.855 45.4083 58.785 45.255 58.725ZM44.805 59.005H47.35V59.44H45.365V61.595H44.805V59.005ZM47.07 59.005H47.64V61.08C47.64 61.2033 47.625 61.3 47.595 61.37C47.5683 61.4367 47.515 61.49 47.435 61.53C47.3583 61.57 47.2633 61.595 47.15 61.605C47.04 61.6117 46.91 61.615 46.76 61.615C46.7467 61.5417 46.725 61.4617 46.695 61.375C46.6683 61.285 46.64 61.2067 46.61 61.14C46.6867 61.1433 46.7633 61.145 46.84 61.145C46.9167 61.145 46.9683 61.145 46.995 61.145C47.0217 61.145 47.04 61.14 47.05 61.13C47.0633 61.1167 47.07 61.0967 47.07 61.07V59.005ZM44.85 57.92H47.23V58.375H44.85V57.92ZM45.115 59.71H47.265V60.13H45.115V59.71ZM45.115 60.41H47.265V60.845H45.115V60.41ZM45.94 59.21H46.475V61.575H45.94V59.21ZM47.015 57.92H47.155L47.27 57.89L47.625 58.175C47.5083 58.285 47.3767 58.3967 47.23 58.51C47.0867 58.6233 46.9367 58.73 46.78 58.83C46.6233 58.9267 46.4683 59.0117 46.315 59.085C46.2817 59.035 46.2333 58.9767 46.17 58.91C46.11 58.8433 46.06 58.79 46.02 58.75C46.1467 58.69 46.2733 58.6183 46.4 58.535C46.53 58.4483 46.6483 58.36 46.755 58.27C46.865 58.18 46.9517 58.0983 47.015 58.025V57.92ZM50.245 60.23H50.865V62.45H50.245V60.23ZM49.74 59.615V59.93H51.235V59.615H49.74ZM49.165 59.195H51.845V60.35H49.165V59.195ZM48.685 60.65H52.05V61.185H49.295V62.225H48.685V60.65ZM51.765 60.65H52.385V61.68C52.385 61.8167 52.3667 61.925 52.33 62.005C52.2967 62.085 52.23 62.1483 52.13 62.195C52.0267 62.235 51.9067 62.2583 51.77 62.265C51.6333 62.275 51.4767 62.28 51.3 62.28C51.2867 62.2 51.26 62.1083 51.22 62.005C51.1833 61.9017 51.145 61.8117 51.105 61.735C51.1783 61.7383 51.2533 61.7417 51.33 61.745C51.41 61.745 51.48 61.745 51.54 61.745C51.6033 61.745 51.645 61.745 51.665 61.745C51.705 61.745 51.7317 61.74 51.745 61.73C51.7583 61.72 51.765 61.7 51.765 61.67V60.65ZM50.185 57.745H50.805V58.67H50.185V57.745ZM48.355 58.435H52.67V59.645H52.07V58.955H48.93V59.645H48.355V58.435ZM48.75 57.995L49.3 57.78C49.37 57.86 49.4383 57.95 49.505 58.05C49.575 58.15 49.6267 58.24 49.66 58.32L49.09 58.57C49.06 58.49 49.0133 58.3967 48.95 58.29C48.8867 58.18 48.82 58.0817 48.75 57.995ZM51.675 57.79L52.325 57.98C52.235 58.0867 52.1467 58.1867 52.06 58.28C51.9733 58.3733 51.895 58.4533 51.825 58.52L51.315 58.34C51.3583 58.2867 51.4017 58.2283 51.445 58.165C51.4917 58.0983 51.535 58.0333 51.575 57.97C51.6183 57.9033 51.6517 57.8433 51.675 57.79ZM54.58 58.24H57.775V58.78H54.58V58.24ZM54.63 59.405H57.75V62.31H57.17V59.93H55.18V62.34H54.63V59.405ZM55.44 58.31H56.005V59.795H55.44V58.31ZM56.335 58.305H56.9V59.79H56.335V58.305ZM54.88 61.54H57.595V62.055H54.88V61.54ZM55.495 59.79H56V61.94H55.495V59.79ZM56.335 59.785H56.84V61.935H56.335V59.785ZM54.15 57.765L54.69 57.935C54.59 58.2083 54.47 58.4833 54.33 58.76C54.19 59.0367 54.0383 59.2983 53.875 59.545C53.7117 59.7883 53.5433 60.0033 53.37 60.19C53.35 60.1433 53.3217 60.0817 53.285 60.005C53.2517 59.9283 53.2133 59.8517 53.17 59.775C53.13 59.695 53.0933 59.6317 53.06 59.585C53.2067 59.4383 53.3467 59.2683 53.48 59.075C53.6167 58.8783 53.7417 58.6683 53.855 58.445C53.9683 58.2217 54.0667 57.995 54.15 57.765ZM53.67 59.16L54.23 58.595L54.235 58.605V62.445H53.67V59.16ZM60.805 58.28H62.125V58.795H60.805V58.28ZM60.29 60.57H62.47V62.435H61.89V61.075H60.845V62.45H60.29V60.57ZM60.51 61.76H62.21V62.275H60.51V61.76ZM60.86 57.745L61.435 57.905C61.3417 58.1317 61.2317 58.3533 61.105 58.57C60.9783 58.7867 60.84 58.9883 60.69 59.175C60.5433 59.3617 60.3917 59.525 60.235 59.665C60.205 59.6283 60.1617 59.585 60.105 59.535C60.0483 59.4817 59.99 59.43 59.93 59.38C59.8733 59.33 59.8217 59.29 59.775 59.26C60.005 59.0833 60.215 58.8617 60.405 58.595C60.5983 58.325 60.75 58.0417 60.86 57.745ZM61.97 58.28H62.075L62.175 58.26L62.555 58.435C62.4483 58.7517 62.31 59.0417 62.14 59.305C61.9733 59.5683 61.78 59.8033 61.56 60.01C61.34 60.2167 61.1 60.3983 60.84 60.555C60.5833 60.7117 60.3133 60.8417 60.03 60.945C59.9933 60.875 59.9417 60.7917 59.875 60.695C59.8117 60.5983 59.75 60.52 59.69 60.46C59.95 60.3833 60.1983 60.2783 60.435 60.145C60.675 60.0083 60.895 59.8517 61.095 59.675C61.2983 59.495 61.475 59.2967 61.625 59.08C61.775 58.86 61.89 58.6267 61.97 58.38V58.28ZM60.83 58.63C60.9333 58.85 61.0817 59.0733 61.275 59.3C61.4683 59.5233 61.7033 59.7267 61.98 59.91C62.26 60.0933 62.575 60.235 62.925 60.335C62.8883 60.3717 62.845 60.42 62.795 60.48C62.7483 60.54 62.7033 60.6017 62.66 60.665C62.62 60.7283 62.5867 60.7833 62.56 60.83C62.2 60.7033 61.8767 60.535 61.59 60.325C61.3067 60.1117 61.0633 59.8767 60.86 59.62C60.66 59.3633 60.5 59.11 60.38 58.86L60.83 58.63ZM58.225 58.785H60.01V59.34H58.225V58.785ZM58.885 57.75H59.45V62.445H58.885V57.75ZM58.875 59.17L59.22 59.285C59.18 59.485 59.1317 59.6933 59.075 59.91C59.0217 60.1233 58.9583 60.3333 58.885 60.54C58.8117 60.7433 58.7333 60.9333 58.65 61.11C58.5667 61.2867 58.4783 61.4383 58.385 61.565C58.3583 61.485 58.3167 61.3933 58.26 61.29C58.2033 61.1867 58.1517 61.0983 58.105 61.025C58.1917 60.915 58.2733 60.7867 58.35 60.64C58.4267 60.4933 58.4983 60.3383 58.565 60.175C58.635 60.0083 58.695 59.84 58.745 59.67C58.7983 59.4967 58.8417 59.33 58.875 59.17ZM59.43 59.44C59.46 59.4667 59.5033 59.5133 59.56 59.58C59.62 59.6467 59.6833 59.72 59.75 59.8C59.8167 59.88 59.8767 59.9533 59.93 60.02C59.9867 60.0867 60.0267 60.1333 60.05 60.16L59.725 60.615C59.695 60.5517 59.655 60.4783 59.605 60.395C59.5583 60.3117 59.5067 60.225 59.45 60.135C59.3967 60.045 59.3433 59.96 59.29 59.88C59.24 59.8 59.1967 59.735 59.16 59.685L59.43 59.44Z" fill="#3F3D56"/>
<path d="M43.243 65.861V64.43H45.736V71H44.134V65.861H43.243ZM46.7888 67.625C46.7888 66.593 46.9868 65.78 47.3828 65.186C47.7848 64.592 48.4298 64.295 49.3178 64.295C50.2058 64.295 50.8478 64.592 51.2438 65.186C51.6458 65.78 51.8468 66.593 51.8468 67.625C51.8468 68.669 51.6458 69.488 51.2438 70.082C50.8478 70.676 50.2058 70.973 49.3178 70.973C48.4298 70.973 47.7848 70.676 47.3828 70.082C46.9868 69.488 46.7888 68.669 46.7888 67.625ZM50.3348 67.625C50.3348 67.019 50.2688 66.554 50.1368 66.23C50.0048 65.9 49.7318 65.735 49.3178 65.735C48.9038 65.735 48.6308 65.9 48.4988 66.23C48.3668 66.554 48.3008 67.019 48.3008 67.625C48.3008 68.033 48.3248 68.372 48.3728 68.642C48.4208 68.906 48.5168 69.122 48.6608 69.29C48.8108 69.452 49.0298 69.533 49.3178 69.533C49.6058 69.533 49.8218 69.452 49.9658 69.29C50.1158 69.122 50.2148 68.906 50.2628 68.642C50.3108 68.372 50.3348 68.033 50.3348 67.625ZM54.4689 69.578L53.4699 72.161H52.4889L53.0109 69.578H54.4689ZM55.2439 67.625C55.2439 66.593 55.4419 65.78 55.8379 65.186C56.2399 64.592 56.8849 64.295 57.7729 64.295C58.6609 64.295 59.3029 64.592 59.6989 65.186C60.1009 65.78 60.3019 66.593 60.3019 67.625C60.3019 68.669 60.1009 69.488 59.6989 70.082C59.3029 70.676 58.6609 70.973 57.7729 70.973C56.8849 70.973 56.2399 70.676 55.8379 70.082C55.4419 69.488 55.2439 68.669 55.2439 67.625ZM58.7899 67.625C58.7899 67.019 58.7239 66.554 58.5919 66.23C58.4599 65.9 58.1869 65.735 57.7729 65.735C57.3589 65.735 57.0859 65.9 56.9539 66.23C56.8219 66.554 56.7559 67.019 56.7559 67.625C56.7559 68.033 56.7799 68.372 56.8279 68.642C56.8759 68.906 56.9719 69.122 57.1159 69.29C57.2659 69.452 57.4849 69.533 57.7729 69.533C58.0609 69.533 58.2769 69.452 58.4209 69.29C58.5709 69.122 58.6699 68.906 58.7179 68.642C58.7659 68.372 58.7899 68.033 58.7899 67.625ZM61.115 67.625C61.115 66.593 61.313 65.78 61.709 65.186C62.111 64.592 62.756 64.295 63.644 64.295C64.532 64.295 65.174 64.592 65.57 65.186C65.972 65.78 66.173 66.593 66.173 67.625C66.173 68.669 65.972 69.488 65.57 70.082C65.174 70.676 64.532 70.973 63.644 70.973C62.756 70.973 62.111 70.676 61.709 70.082C61.313 69.488 61.115 68.669 61.115 67.625ZM64.661 67.625C64.661 67.019 64.595 66.554 64.463 66.23C64.331 65.9 64.058 65.735 63.644 65.735C63.23 65.735 62.957 65.9 62.825 66.23C62.693 66.554 62.627 67.019 62.627 67.625C62.627 68.033 62.651 68.372 62.699 68.642C62.747 68.906 62.843 69.122 62.987 69.29C63.137 69.452 63.356 69.533 63.644 69.533C63.932 69.533 64.148 69.452 64.292 69.29C64.442 69.122 64.541 68.906 64.589 68.642C64.637 68.372 64.661 68.033 64.661 67.625ZM66.9861 67.625C66.9861 66.593 67.1841 65.78 67.5801 65.186C67.9821 64.592 68.6271 64.295 69.5151 64.295C70.4031 64.295 71.0451 64.592 71.4411 65.186C71.8431 65.78 72.0441 66.593 72.0441 67.625C72.0441 68.669 71.8431 69.488 71.4411 70.082C71.0451 70.676 70.4031 70.973 69.5151 70.973C68.6271 70.973 67.9821 70.676 67.5801 70.082C67.1841 69.488 66.9861 68.669 66.9861 67.625ZM70.5321 67.625C70.5321 67.019 70.4661 66.554 70.3341 66.23C70.2021 65.9 69.9291 65.735 69.5151 65.735C69.1011 65.735 68.8281 65.9 68.6961 66.23C68.5641 66.554 68.4981 67.019 68.4981 67.625C68.4981 68.033 68.5221 68.372 68.5701 68.642C68.6181 68.906 68.7141 69.122 68.8581 69.29C69.0081 69.452 69.2271 69.533 69.5151 69.533C69.8031 69.533 70.0191 69.452 70.1631 69.29C70.3131 69.122 70.4121 68.906 70.4601 68.642C70.5081 68.372 70.5321 68.033 70.5321 67.625ZM73.1721 63.926H80.2281V64.997H74.2521V71.801H73.1721V63.926ZM79.7151 63.926H80.8041V70.541C80.8041 70.829 80.7681 71.054 80.6961 71.216C80.6241 71.384 80.4951 71.513 80.3091 71.603C80.1231 71.693 79.8891 71.747 79.6071 71.765C79.3311 71.789 78.9921 71.801 78.5901 71.801C78.5721 71.699 78.5421 71.582 78.5001 71.45C78.4581 71.318 78.4101 71.186 78.3561 71.054C78.3021 70.928 78.2481 70.817 78.1941 70.721C78.3681 70.733 78.5421 70.742 78.7161 70.748C78.8961 70.748 79.0551 70.748 79.1931 70.748C79.3311 70.748 79.4271 70.748 79.4811 70.748C79.5651 70.742 79.6251 70.724 79.6611 70.694C79.6971 70.658 79.7151 70.601 79.7151 70.523V63.926ZM73.7571 67.274H80.2461V68.336H73.7571V67.274ZM76.3851 64.511H77.4651V67.805H76.3851V64.511Z" fill="#3F3D56"/>
<line x1="42.5" y1="67.5" x2="83.5" y2="67.5" stroke="#FD652E" stroke-linecap="round"/>
<path d="M104.784 66.92V64.712L109.84 57.48H112.896V64.552H114.208V66.92H112.896V69H110.16V66.92H104.784ZM110.352 60.488L107.664 64.552H110.352V60.488ZM118.764 66.472L116.988 71.064H115.244L116.172 66.472H118.764ZM123.086 65.576C123.246 66.4187 123.737 66.84 124.558 66.84C125.123 66.84 125.523 66.5893 125.758 66.088C125.993 65.5867 126.11 64.7707 126.11 63.64C125.875 63.9707 125.555 64.2267 125.15 64.408C124.745 64.5893 124.291 64.68 123.79 64.68C123.107 64.68 122.499 64.5413 121.966 64.264C121.433 63.976 121.011 63.5547 120.702 63C120.403 62.4347 120.254 61.752 120.254 60.952C120.254 60.1627 120.414 59.4747 120.734 58.888C121.065 58.3013 121.529 57.848 122.126 57.528C122.734 57.208 123.449 57.048 124.27 57.048C125.849 57.048 126.953 57.5387 127.582 58.52C128.211 59.5013 128.526 60.9467 128.526 62.856C128.526 64.2427 128.398 65.3893 128.142 66.296C127.897 67.192 127.475 67.8747 126.878 68.344C126.291 68.8133 125.486 69.048 124.462 69.048C123.651 69.048 122.958 68.888 122.382 68.568C121.817 68.248 121.379 67.8267 121.07 67.304C120.771 66.7813 120.601 66.2053 120.558 65.576H123.086ZM124.414 62.52C124.862 62.52 125.219 62.3867 125.486 62.12C125.753 61.8427 125.886 61.4693 125.886 61C125.886 60.488 125.747 60.0933 125.47 59.816C125.193 59.5387 124.819 59.4 124.35 59.4C123.881 59.4 123.507 59.544 123.23 59.832C122.963 60.1093 122.83 60.4933 122.83 60.984C122.83 61.4427 122.963 61.816 123.23 62.104C123.507 62.3813 123.902 62.52 124.414 62.52ZM131.906 62.728C130.903 62.1947 130.402 61.3573 130.402 60.216C130.402 59.64 130.551 59.1173 130.85 58.648C131.148 58.168 131.602 57.7893 132.21 57.512C132.818 57.224 133.564 57.08 134.45 57.08C135.335 57.08 136.076 57.224 136.674 57.512C137.282 57.7893 137.735 58.168 138.034 58.648C138.332 59.1173 138.482 59.64 138.482 60.216C138.482 60.792 138.343 61.2933 138.066 61.72C137.799 62.1467 137.436 62.4827 136.978 62.728C137.554 63.0053 137.996 63.3893 138.306 63.88C138.615 64.36 138.77 64.9253 138.77 65.576C138.77 66.3333 138.578 66.9893 138.194 67.544C137.81 68.088 137.287 68.504 136.626 68.792C135.975 69.08 135.25 69.224 134.45 69.224C133.65 69.224 132.919 69.08 132.258 68.792C131.607 68.504 131.09 68.088 130.706 67.544C130.322 66.9893 130.13 66.3333 130.13 65.576C130.13 64.9147 130.284 64.344 130.594 63.864C130.903 63.3733 131.34 62.9947 131.906 62.728ZM135.826 60.632C135.826 60.1947 135.698 59.8587 135.442 59.624C135.196 59.3787 134.866 59.256 134.45 59.256C134.034 59.256 133.698 59.3787 133.442 59.624C133.196 59.8693 133.074 60.2107 133.074 60.648C133.074 61.064 133.202 61.3947 133.458 61.64C133.714 61.8747 134.044 61.992 134.45 61.992C134.855 61.992 135.186 61.8693 135.442 61.624C135.698 61.3787 135.826 61.048 135.826 60.632ZM134.45 63.912C133.948 63.912 133.543 64.0507 133.234 64.328C132.924 64.5947 132.77 64.968 132.77 65.448C132.77 65.896 132.919 66.264 133.218 66.552C133.527 66.84 133.938 66.984 134.45 66.984C134.962 66.984 135.362 66.84 135.65 66.552C135.948 66.264 136.098 65.896 136.098 65.448C136.098 64.9787 135.943 64.6053 135.634 64.328C135.335 64.0507 134.94 63.912 134.45 63.912ZM140.361 63C140.361 61.1653 140.713 59.72 141.417 58.664C142.131 57.608 143.278 57.08 144.857 57.08C146.435 57.08 147.577 57.608 148.281 58.664C148.995 59.72 149.353 61.1653 149.353 63C149.353 64.856 148.995 66.312 148.281 67.368C147.577 68.424 146.435 68.952 144.857 68.952C143.278 68.952 142.131 68.424 141.417 67.368C140.713 66.312 140.361 64.856 140.361 63ZM146.665 63C146.665 61.9227 146.547 61.096 146.313 60.52C146.078 59.9333 145.593 59.64 144.857 59.64C144.121 59.64 143.635 59.9333 143.401 60.52C143.166 61.096 143.049 61.9227 143.049 63C143.049 63.7253 143.091 64.328 143.177 64.808C143.262 65.2773 143.433 65.6613 143.689 65.96C143.955 66.248 144.345 66.392 144.857 66.392C145.369 66.392 145.753 66.248 146.009 65.96C146.275 65.6613 146.451 65.2773 146.537 64.808C146.622 64.328 146.665 63.7253 146.665 63ZM151.358 56.424H163.902V58.328H153.278V70.424H151.358V56.424ZM162.99 56.424H164.926V68.184C164.926 68.696 164.862 69.096 164.734 69.384C164.606 69.6827 164.377 69.912 164.046 70.072C163.715 70.232 163.299 70.328 162.798 70.36C162.307 70.4027 161.705 70.424 160.99 70.424C160.958 70.2427 160.905 70.0347 160.83 69.8C160.755 69.5653 160.67 69.3307 160.574 69.096C160.478 68.872 160.382 68.6747 160.286 68.504C160.595 68.5253 160.905 68.5413 161.214 68.552C161.534 68.552 161.817 68.552 162.062 68.552C162.307 68.552 162.478 68.552 162.574 68.552C162.723 68.5413 162.83 68.5093 162.894 68.456C162.958 68.392 162.99 68.2907 162.99 68.152V56.424ZM152.398 62.376H163.934V64.264H152.398V62.376ZM157.07 57.464H158.99V63.32H157.07V57.464Z" fill="#FD652E"/>
<path d="M89.536 55.1601L90.328 54.8161C90.4773 55.0241 90.6213 55.2561 90.76 55.5121C90.904 55.7628 91.0027 55.9841 91.056 56.1761L90.216 56.5521C90.1627 56.3654 90.0693 56.1414 89.936 55.8801C89.808 55.6188 89.6747 55.3788 89.536 55.1601ZM92.472 54.7921L93.456 55.1201C93.312 55.3708 93.168 55.6161 93.024 55.8561C92.88 56.0961 92.744 56.3041 92.616 56.4801L91.808 56.1761C91.888 56.0481 91.968 55.9041 92.048 55.7441C92.1333 55.5841 92.2133 55.4214 92.288 55.2561C92.3627 55.0908 92.424 54.9361 92.472 54.7921ZM90.208 58.9841H91.152C91.1253 59.3468 91.08 59.6934 91.016 60.0241C90.952 60.3548 90.8533 60.6641 90.72 60.9521C90.5867 61.2348 90.4 61.4908 90.16 61.7201C89.9253 61.9548 89.6187 62.1574 89.24 62.3281C89.192 62.2108 89.1093 62.0774 88.992 61.9281C88.88 61.7788 88.7733 61.6588 88.672 61.5681C88.992 61.4401 89.248 61.2854 89.44 61.1041C89.6373 60.9228 89.7867 60.7228 89.888 60.5041C89.9947 60.2801 90.0693 60.0428 90.112 59.7921C90.1547 59.5361 90.1867 59.2668 90.208 58.9841ZM91.568 58.8641H92.496V61.0801C92.496 61.2028 92.5013 61.2801 92.512 61.3121C92.528 61.3388 92.5627 61.3521 92.616 61.3521C92.632 61.3521 92.656 61.3521 92.688 61.3521C92.7253 61.3521 92.7627 61.3521 92.8 61.3521C92.8373 61.3521 92.8613 61.3521 92.872 61.3521C92.9147 61.3521 92.9467 61.3308 92.968 61.2881C92.9893 61.2454 93.0053 61.1574 93.016 61.0241C93.0267 60.8854 93.0347 60.6748 93.04 60.3921C93.0987 60.4454 93.176 60.4961 93.272 60.5441C93.3733 60.5921 93.4773 60.6348 93.584 60.6721C93.6907 60.7094 93.7813 60.7388 93.856 60.7601C93.8347 61.1388 93.7893 61.4321 93.72 61.6401C93.656 61.8534 93.5627 62.0028 93.44 62.0881C93.3227 62.1734 93.168 62.2161 92.976 62.2161C92.944 62.2161 92.904 62.2161 92.856 62.2161C92.8133 62.2161 92.7653 62.2161 92.712 62.2161C92.664 62.2161 92.616 62.2161 92.568 62.2161C92.52 62.2161 92.48 62.2161 92.448 62.2161C92.208 62.2161 92.024 62.1788 91.896 62.1041C91.7733 62.0348 91.688 61.9174 91.64 61.7521C91.592 61.5921 91.568 61.3708 91.568 61.0881V58.8641ZM90.464 57.2401V58.3281H92.448V57.2401H90.464ZM89.552 56.4001H93.4V59.1681H89.552V56.4001ZM87.48 55.5521H88.408V62.3121H87.48V55.5521ZM86.328 57.0561H89.264V57.9441H86.328V57.0561ZM87.528 57.4161L88.088 57.6561C88.0133 57.9441 87.9227 58.2428 87.816 58.5521C87.7093 58.8614 87.592 59.1681 87.464 59.4721C87.336 59.7708 87.2 60.0534 87.056 60.3201C86.912 60.5868 86.7627 60.8188 86.608 61.0161C86.56 60.8774 86.4907 60.7228 86.4 60.5521C86.3147 60.3761 86.2347 60.2268 86.16 60.1041C86.2987 59.9441 86.4347 59.7574 86.568 59.5441C86.7067 59.3254 86.8373 59.0934 86.96 58.8481C87.0827 58.6028 87.192 58.3574 87.288 58.1121C87.384 57.8668 87.464 57.6348 87.528 57.4161ZM88.72 54.8881L89.368 55.6241C89.096 55.7254 88.7973 55.8188 88.472 55.9041C88.1467 55.9894 87.8133 56.0641 87.472 56.1281C87.136 56.1868 86.8133 56.2374 86.504 56.2801C86.4827 56.1734 86.4453 56.0508 86.392 55.9121C86.3387 55.7681 86.2853 55.6454 86.232 55.5441C86.5253 55.4961 86.824 55.4401 87.128 55.3761C87.4373 55.3068 87.728 55.2294 88 55.1441C88.2773 55.0588 88.5173 54.9734 88.72 54.8881ZM88.392 58.1681C88.44 58.2054 88.512 58.2748 88.608 58.3761C88.7093 58.4721 88.816 58.5788 88.928 58.6961C89.0453 58.8134 89.1493 58.9228 89.24 59.0241C89.3307 59.1201 89.3973 59.1894 89.44 59.2321L88.888 59.9921C88.84 59.8908 88.776 59.7761 88.696 59.6481C88.6213 59.5201 88.5387 59.3868 88.448 59.2481C88.3627 59.1094 88.2773 58.9788 88.192 58.8561C88.1067 58.7281 88.032 58.6241 87.968 58.5441L88.392 58.1681ZM97.232 55.1361H98.928V56.0481H97.232V55.1361ZM98.44 55.1361H99.448C99.48 55.7068 99.5387 56.2508 99.624 56.7681C99.7093 57.2854 99.8373 57.7654 100.008 58.2081C100.179 58.6454 100.403 59.0321 100.68 59.3681C100.957 59.7041 101.307 59.9788 101.728 60.1921C101.648 60.2454 101.56 60.3148 101.464 60.4001C101.373 60.4854 101.283 60.5761 101.192 60.6721C101.107 60.7628 101.035 60.8481 100.976 60.9281C100.549 60.6721 100.192 60.3601 99.904 59.9921C99.616 59.6188 99.3813 59.2001 99.2 58.7361C99.024 58.2721 98.888 57.7734 98.792 57.2401C98.7013 56.7068 98.6373 56.1494 98.6 55.5681H98.44V55.1361ZM98.416 56.8081L99.4 56.9441C99.2293 57.8454 98.96 58.6321 98.592 59.3041C98.224 59.9761 97.7467 60.5201 97.16 60.9361C97.112 60.8721 97.0427 60.7948 96.952 60.7041C96.8667 60.6134 96.7733 60.5228 96.672 60.4321C96.576 60.3361 96.4907 60.2614 96.416 60.2081C96.976 59.8721 97.416 59.4134 97.736 58.8321C98.0613 58.2508 98.288 57.5761 98.416 56.8081ZM96.216 57.9201V60.8721H95.28V58.8081H94.352V57.9201H96.216ZM96.216 60.4561C96.3813 60.7174 96.6133 60.9094 96.912 61.0321C97.2107 61.1548 97.568 61.2241 97.984 61.2401C98.2187 61.2508 98.496 61.2588 98.816 61.2641C99.1413 61.2641 99.4827 61.2614 99.84 61.2561C100.197 61.2508 100.547 61.2401 100.888 61.2241C101.235 61.2081 101.541 61.1894 101.808 61.1681C101.776 61.2428 101.739 61.3388 101.696 61.4561C101.653 61.5734 101.613 61.6934 101.576 61.8161C101.544 61.9388 101.52 62.0481 101.504 62.1441C101.264 62.1601 100.989 62.1708 100.68 62.1761C100.371 62.1868 100.053 62.1921 99.728 62.1921C99.4027 62.1974 99.088 62.1974 98.784 62.1921C98.48 62.1868 98.208 62.1788 97.968 62.1681C97.4773 62.1468 97.0587 62.0694 96.712 61.9361C96.3653 61.8081 96.0587 61.5894 95.792 61.2801C95.616 61.4294 95.4347 61.5841 95.248 61.7441C95.0667 61.9041 94.8667 62.0694 94.648 62.2401L94.176 61.2401C94.3627 61.1281 94.5573 61.0054 94.76 60.8721C94.9627 60.7388 95.1573 60.6001 95.344 60.4561H96.216ZM94.36 55.5681L95.072 54.9921C95.2373 55.0988 95.4053 55.2241 95.576 55.3681C95.7467 55.5068 95.9067 55.6508 96.056 55.8001C96.2053 55.9441 96.3253 56.0774 96.416 56.2001L95.656 56.8401C95.576 56.7121 95.464 56.5734 95.32 56.4241C95.1813 56.2748 95.0267 56.1254 94.856 55.9761C94.6853 55.8214 94.52 55.6854 94.36 55.5681ZM88.528 64.5841H93.64V65.4481H88.528V64.5841ZM88.608 66.4481H93.6V71.0961H92.672V67.2881H89.488V71.1441H88.608V66.4481ZM89.904 64.6961H90.808V67.0721H89.904V64.6961ZM91.336 64.6881H92.24V67.0641H91.336V64.6881ZM89.008 69.8641H93.352V70.6881H89.008V69.8641ZM89.992 67.0641H90.8V70.5041H89.992V67.0641ZM91.336 67.0561H92.144V70.4961H91.336V67.0561ZM87.84 63.8241L88.704 64.0961C88.544 64.5334 88.352 64.9734 88.128 65.4161C87.904 65.8588 87.6613 66.2774 87.4 66.6721C87.1387 67.0614 86.8693 67.4054 86.592 67.7041C86.56 67.6294 86.5147 67.5308 86.456 67.4081C86.4027 67.2854 86.3413 67.1628 86.272 67.0401C86.208 66.9121 86.1493 66.8108 86.096 66.7361C86.3307 66.5014 86.5547 66.2294 86.768 65.9201C86.9867 65.6054 87.1867 65.2694 87.368 64.9121C87.5493 64.5548 87.7067 64.1921 87.84 63.8241ZM87.072 66.0561L87.968 65.1521L87.976 65.1681V71.3121H87.072V66.0561ZM98.488 64.6481H100.6V65.4721H98.488V64.6481ZM97.664 68.3121H101.152V71.2961H100.224V69.1201H98.552V71.3201H97.664V68.3121ZM98.016 70.2161H100.736V71.0401H98.016V70.2161ZM98.576 63.7921L99.496 64.0481C99.3467 64.4108 99.1707 64.7654 98.968 65.1121C98.7653 65.4588 98.544 65.7814 98.304 66.0801C98.0693 66.3788 97.8267 66.6401 97.576 66.8641C97.528 66.8054 97.4587 66.7361 97.368 66.6561C97.2773 66.5708 97.184 66.4881 97.088 66.4081C96.9973 66.3281 96.9147 66.2641 96.84 66.2161C97.208 65.9334 97.544 65.5788 97.848 65.1521C98.1573 64.7201 98.4 64.2668 98.576 63.7921ZM100.352 64.6481H100.52L100.68 64.6161L101.288 64.8961C101.117 65.4028 100.896 65.8668 100.624 66.2881C100.357 66.7094 100.048 67.0854 99.696 67.4161C99.344 67.7468 98.96 68.0374 98.544 68.2881C98.1333 68.5388 97.7013 68.7468 97.248 68.9121C97.1893 68.8001 97.1067 68.6668 97 68.5121C96.8987 68.3574 96.8 68.2321 96.704 68.1361C97.12 68.0134 97.5173 67.8454 97.896 67.6321C98.28 67.4134 98.632 67.1628 98.952 66.8801C99.2773 66.5921 99.56 66.2748 99.8 65.9281C100.04 65.5761 100.224 65.2028 100.352 64.8081V64.6481ZM98.528 65.2081C98.6933 65.5601 98.9307 65.9174 99.24 66.2801C99.5493 66.6374 99.9253 66.9628 100.368 67.2561C100.816 67.5494 101.32 67.7761 101.88 67.9361C101.821 67.9948 101.752 68.0721 101.672 68.1681C101.597 68.2641 101.525 68.3628 101.456 68.4641C101.392 68.5654 101.339 68.6534 101.296 68.7281C100.72 68.5254 100.203 68.2561 99.744 67.9201C99.2907 67.5788 98.9013 67.2028 98.576 66.7921C98.256 66.3814 98 65.9761 97.808 65.5761L98.528 65.2081ZM94.36 65.4561H97.216V66.3441H94.36V65.4561ZM95.416 63.8001H96.32V71.3121H95.416V63.8001ZM95.4 66.0721L95.952 66.2561C95.888 66.5761 95.8107 66.9094 95.72 67.2561C95.6347 67.5974 95.5333 67.9334 95.416 68.2641C95.2987 68.5894 95.1733 68.8934 95.04 69.1761C94.9067 69.4588 94.7653 69.7014 94.616 69.9041C94.5733 69.7761 94.5067 69.6294 94.416 69.4641C94.3253 69.2988 94.2427 69.1574 94.168 69.0401C94.3067 68.8641 94.4373 68.6588 94.56 68.4241C94.6827 68.1894 94.7973 67.9414 94.904 67.6801C95.016 67.4134 95.112 67.1441 95.192 66.8721C95.2773 66.5948 95.3467 66.3281 95.4 66.0721ZM96.288 66.5041C96.336 66.5468 96.4053 66.6214 96.496 66.7281C96.592 66.8348 96.6933 66.9521 96.8 67.0801C96.9067 67.2081 97.0027 67.3254 97.088 67.4321C97.1787 67.5388 97.2427 67.6134 97.28 67.6561L96.76 68.3841C96.712 68.2828 96.648 68.1654 96.568 68.0321C96.4933 67.8988 96.4107 67.7601 96.32 67.6161C96.2347 67.4721 96.1493 67.3361 96.064 67.2081C95.984 67.0801 95.9147 66.9761 95.856 66.8961L96.288 66.5041Z" fill="#FD652E"/>
<path d="M46.2921 55.137C45.6187 55.1351 44.9697 54.8834 44.469 54.4302C43.9684 53.977 43.6512 53.354 43.5783 52.6803L42.0154 38.0734C41.9386 37.3482 42.1508 36.6219 42.6055 36.0539C43.0602 35.4859 43.7202 35.1227 44.4407 35.0438L90.846 30.0155C91.5667 29.9382 92.2884 30.1518 92.8529 30.6093C93.4173 31.0668 93.7783 31.731 93.8567 32.4561L95.4196 47.063C95.4964 47.7882 95.2841 48.5145 94.8295 49.0825C94.3748 49.6505 93.7148 50.0138 92.9942 50.0927L46.5889 55.121C46.4903 55.1317 46.3913 55.137 46.2921 55.137Z" fill="#E6E6E6"/>
<path d="M90.3354 30.6938C90.2482 30.6939 90.1611 30.6986 90.0744 30.708L45.3422 35.555C45.0294 35.5889 44.7264 35.6844 44.4503 35.8362C44.1742 35.9879 43.9305 36.1929 43.7332 36.4395C43.5358 36.686 43.3886 36.9692 43.3 37.273C43.2115 37.5768 43.1832 37.8951 43.2169 38.2099L44.0071 45.5953C44.1348 46.7892 44.495 47.9462 45.067 49.0001C45.6391 50.0539 46.4118 50.9841 47.3411 51.7374C48.2703 52.4908 49.3379 53.0525 50.4829 53.3907C51.6279 53.7288 52.8279 53.8367 54.0143 53.7081L85.4685 50.2999C86.6514 50.1717 87.7975 49.8104 88.8416 49.2364C89.8856 48.6625 90.8071 47.8873 91.5534 46.955C92.2998 46.0227 92.8563 44.9516 93.1913 43.8028C93.5263 42.6541 93.6331 41.4502 93.5058 40.2599L92.7126 32.8468C92.6494 32.2563 92.3719 31.7101 91.9332 31.3128C91.4945 30.9155 90.9256 30.6951 90.3354 30.6938Z" fill="white"/>
<path d="M45.3091 38.6897C45.853 38.6897 46.2939 38.246 46.2939 37.6986C46.2939 37.1512 45.853 36.7075 45.3091 36.7075C44.7652 36.7075 44.3242 37.1512 44.3242 37.6986C44.3242 38.246 44.7652 38.6897 45.3091 38.6897Z" fill="#3F3D56"/>
<path d="M51.8995 41.9887L51.9517 42.4689L52.8285 42.3736L52.7764 41.8935L51.8995 41.9887ZM50.3546 42.1566L50.4068 42.6368L51.2558 42.5445L51.2036 42.0643L50.3546 42.1566ZM48.8306 42.3222L48.8828 42.8024L49.7109 42.7124L49.6587 42.2322L48.8306 42.3222ZM47.9908 41.7868L53.5233 41.1856L53.71 42.9045L48.1776 43.5056L47.9908 41.7868ZM49.5746 45.0226L49.6117 45.3636L52.6667 45.0317L52.6297 44.6907L49.5746 45.0226ZM49.6654 45.8577L49.7032 46.2057L52.7582 45.8737L52.7204 45.5258L49.6654 45.8577ZM49.4847 44.1945L49.521 44.5285L52.576 44.1966L52.5397 43.8626L49.4847 44.1945ZM48.5852 43.7571L53.3591 43.2384L53.6918 46.3004L48.9178 46.8191L48.5852 43.7571ZM51.7137 46.8885L52.3356 46.3914C52.6045 46.4467 52.8788 46.5084 53.1585 46.5766C53.4428 46.6443 53.7132 46.7135 53.9696 46.7842C54.2256 46.8503 54.446 46.9132 54.6309 46.9729L53.7716 47.4887C53.6192 47.4255 53.4312 47.359 53.2078 47.2894C52.9889 47.2193 52.7512 47.1489 52.4948 47.0782C52.2383 47.0075 51.9779 46.9443 51.7137 46.8885ZM50.1289 46.6241L50.9245 46.8827C50.7479 47.0286 50.5383 47.1734 50.2957 47.3172C50.0531 47.4609 49.8 47.594 49.5364 47.7165C49.2779 47.8432 49.0318 47.9544 48.7981 48.0502C48.7452 47.9949 48.6773 47.9319 48.5945 47.8611C48.5122 47.7949 48.4276 47.729 48.3407 47.6634C48.2537 47.5977 48.1776 47.5449 48.1122 47.5051C48.3577 47.4315 48.6068 47.3481 48.8596 47.2549C49.1118 47.1571 49.3471 47.0541 49.5653 46.9459C49.7882 46.8372 49.9761 46.7299 50.1289 46.6241ZM56.0919 41.5614C56.0824 41.6469 56.0765 41.7438 56.0742 41.852C56.0765 41.9597 56.0786 42.0651 56.0804 42.1682C56.0868 42.2708 56.0936 42.3545 56.1006 42.4195C56.1126 42.5731 56.1275 42.7311 56.1451 42.8934C56.1674 43.0553 56.1902 43.2218 56.2135 43.393C56.2409 43.559 56.2706 43.7247 56.3027 43.8902C56.3715 44.2208 56.4499 44.5103 56.5379 44.7589C56.6259 45.0075 56.7265 45.1985 56.8395 45.3317C56.9521 45.4603 57.0826 45.5165 57.231 45.5004C57.3099 45.4918 57.3817 45.4394 57.4463 45.3432C57.5156 45.2465 57.5729 45.1253 57.6181 44.9795C57.6674 44.8287 57.7067 44.6718 57.7359 44.5091C57.7698 44.3458 57.7978 44.1925 57.8198 44.0493L58.6079 44.8227C58.4987 45.243 58.3806 45.582 58.2537 45.8399C58.131 46.0927 57.9942 46.2812 57.8434 46.4055C57.6921 46.5253 57.5214 46.5954 57.3311 46.6161C57.0806 46.6433 56.8326 46.5858 56.5871 46.4435C56.3463 46.3006 56.1269 46.0522 55.9288 45.6982C55.7302 45.3396 55.5647 44.8529 55.4322 44.2383C55.3858 44.0274 55.3428 43.8044 55.3032 43.5693C55.2682 43.3337 55.2368 43.1095 55.209 42.8966C55.1858 42.6832 55.1666 42.5069 55.1515 42.3677C55.1409 42.2703 55.1237 42.1548 55.0998 42.0212C55.0759 41.8877 55.0489 41.7686 55.0187 41.6639L56.0919 41.5614ZM59.5888 41.3434C59.7359 41.487 59.882 41.6659 60.0274 41.8802C60.1727 42.0944 60.3105 42.3259 60.4408 42.5746C60.5711 42.8233 60.6905 43.0802 60.7991 43.3454C60.9073 43.6059 60.9986 43.8635 61.0732 44.1183C61.152 44.3679 61.2099 44.5987 61.247 44.8106L60.367 45.2653C60.3131 44.9848 60.2378 44.6808 60.1412 44.3533C60.0446 44.0259 59.9268 43.6983 59.788 43.3707C59.6491 43.0432 59.4914 42.7364 59.3148 42.4505C59.1429 42.164 58.9499 41.9221 58.736 41.7247L59.5888 41.3434ZM63.9798 40.2819L67.3202 39.9189L67.4064 40.7123L64.066 41.0752L63.9798 40.2819ZM66.9514 39.959L67.8212 39.8645C67.8212 39.8645 67.8219 39.8926 67.8234 39.9488C67.8294 40.0044 67.8362 40.0671 67.8438 40.1367C67.8508 40.2016 67.8541 40.2529 67.8534 40.2905C67.9297 41.1647 67.9889 41.9047 68.0313 42.5103C68.0782 43.1154 68.109 43.6144 68.1235 44.0071C68.138 44.3998 68.1339 44.7077 68.1112 44.9308C68.088 45.1493 68.0492 45.3107 67.9948 45.4152C67.9172 45.5645 67.8326 45.6723 67.7413 45.7385C67.6499 45.8048 67.5387 45.8614 67.4077 45.9085C67.2849 45.9453 67.1331 45.9736 66.9522 45.9932C66.7712 46.0129 66.5875 46.0282 66.4009 46.0391C66.3831 45.9189 66.3397 45.7781 66.2705 45.6167C66.2013 45.4552 66.1233 45.3205 66.0365 45.2126C66.2236 45.2063 66.3916 45.1975 66.5406 45.186C66.6937 45.1693 66.812 45.1565 66.8955 45.1474C66.9604 45.1404 67.0104 45.1255 67.0455 45.1029C67.0853 45.0798 67.1207 45.0384 67.1517 44.9787C67.1957 44.9082 67.2254 44.7712 67.2409 44.5677C67.2563 44.3642 67.2552 44.0733 67.2376 43.695C67.2246 43.3161 67.1961 42.8381 67.1522 42.2608C67.1082 41.6835 67.0486 40.9835 66.9733 40.1608L66.9514 39.959ZM61.5185 42.1899L64.4211 41.2972L64.6427 42.0406L61.7347 42.948L61.5185 42.1899ZM62.0878 40.1706L62.9159 40.0806L63.334 43.929C63.3496 44.0728 63.3688 44.1623 63.3913 44.1974C63.4139 44.2325 63.4554 44.2467 63.5157 44.2402C63.5296 44.2387 63.5505 44.2364 63.5783 44.2334C63.6108 44.2298 63.6456 44.2261 63.6827 44.222C63.7198 44.218 63.7546 44.2142 63.7871 44.2107C63.8242 44.2067 63.8497 44.2039 63.8636 44.2024C63.91 44.1973 63.9423 44.1703 63.9605 44.1214C63.9781 44.0679 63.9845 43.9757 63.9797 43.8447C63.9744 43.7092 63.963 43.518 63.9455 43.2711C64.0417 43.3357 64.1653 43.3927 64.3162 43.442C64.4712 43.4862 64.6059 43.5162 64.7202 43.5319C64.7292 43.8736 64.7144 44.1475 64.6757 44.3535C64.6371 44.5596 64.5669 44.7127 64.4651 44.813C64.3628 44.9086 64.2189 44.9665 64.0334 44.9866C64.0009 44.9902 63.9568 44.9949 63.9011 45.001C63.8501 45.0065 63.7944 45.0126 63.7341 45.0191C63.6784 45.0252 63.6251 45.031 63.5741 45.0365C63.523 45.0421 63.4813 45.0466 63.4488 45.0501C63.2354 45.0733 63.0648 45.059 62.9372 45.0072C62.809 44.9507 62.7129 44.8438 62.6488 44.6864C62.5843 44.5244 62.5366 44.302 62.5059 44.019L62.0878 40.1706ZM65.0715 40.5435L65.9066 40.4528C65.9539 40.9311 65.9906 41.3989 66.0168 41.8561C66.0471 42.3081 66.0499 42.7443 66.0252 43.1648C66.0051 43.5848 65.9454 43.9856 65.846 44.3672C65.7508 44.7437 65.6018 45.1002 65.399 45.4368C65.1956 45.7687 64.9233 46.0705 64.582 46.3423C64.5055 46.2426 64.4042 46.1316 64.2782 46.0092C64.1528 45.8914 64.0327 45.8011 63.9179 45.7385C64.2344 45.4976 64.4827 45.2335 64.6627 44.9464C64.8427 44.6593 64.9757 44.3491 65.0615 44.0159C65.1474 43.6827 65.1961 43.3323 65.2078 42.9649C65.2191 42.5929 65.2097 42.2043 65.1798 41.7991C65.1498 41.394 65.1137 40.9755 65.0715 40.5435ZM70.6463 39.3604C70.6322 39.4464 70.618 39.5536 70.6038 39.6819C70.5896 39.8102 70.5761 39.9454 70.5634 40.0876C70.5502 40.2252 70.539 40.3602 70.5299 40.4926C70.5255 40.6245 70.5239 40.7397 70.5252 40.8381C70.5936 40.6899 70.6787 40.5445 70.7806 40.402C70.882 40.2548 70.9988 40.1201 71.131 39.9978C71.2674 39.8703 71.4178 39.7648 71.5824 39.6812C71.7517 39.5971 71.9337 39.5444 72.1286 39.5232C72.4533 39.488 72.7565 39.5559 73.0379 39.7272C73.3194 39.8985 73.5545 40.1616 73.7433 40.5166C73.9368 40.8711 74.0612 41.3036 74.1166 41.8139C74.1701 42.3057 74.145 42.7449 74.0415 43.1317C73.9375 43.5139 73.7651 43.8494 73.5243 44.1385C73.2834 44.4275 72.9839 44.6737 72.6258 44.8769C72.2728 45.0842 71.8712 45.2546 71.4209 45.388L70.8043 44.6382C71.1828 44.5361 71.5266 44.4166 71.8356 44.2797C72.1488 44.1377 72.4115 43.9637 72.6238 43.7575C72.8408 43.5509 72.9965 43.2992 73.091 43.0026C73.1897 42.7009 73.2163 42.3412 73.171 41.9237C73.1322 41.5665 73.0623 41.2689 72.9613 41.0311C72.8599 40.7887 72.7302 40.6103 72.5723 40.496C72.419 40.3812 72.2449 40.3344 72.05 40.3556C71.8459 40.3778 71.6584 40.4662 71.4874 40.6209C71.3164 40.7756 71.1686 40.9701 71.0438 41.2042C70.9232 41.4333 70.8324 41.6779 70.7715 41.938C70.7152 42.1976 70.695 42.4438 70.7109 42.6768C70.7169 42.7748 70.7261 42.8817 70.7387 42.9977C70.756 43.1132 70.785 43.2508 70.8259 43.4107L69.976 43.5594C69.9428 43.4268 69.9038 43.2621 69.8589 43.0651C69.8181 42.863 69.7849 42.6437 69.7592 42.407C69.7416 42.2447 69.7273 42.0702 69.7164 41.8836C69.7102 41.6965 69.7037 41.5071 69.6969 41.3154C69.6943 41.1185 69.694 40.9214 69.6961 40.724C69.7027 40.5261 69.7081 40.3378 69.7121 40.159C69.7161 40.0224 69.7156 39.8887 69.7108 39.7578C69.7059 39.6269 69.6985 39.515 69.6884 39.4222L70.6463 39.3604ZM77.3308 38.9932L81.7776 38.5101L81.8593 39.2616L77.4124 39.7448L77.3308 38.9932ZM77.5765 40.6071L81.919 40.1353L82.3583 44.1785L81.551 44.2662L81.1911 40.9537L78.4214 41.2546L78.7859 44.6089L78.0204 44.6921L77.5765 40.6071ZM78.5383 38.9606L79.3247 38.8752L79.5492 40.942L78.7629 41.0274L78.5383 38.9606ZM79.7832 38.8183L80.5696 38.7328L80.7942 40.7997L80.0078 40.8851L79.7832 38.8183ZM78.2473 43.5408L82.0261 43.1302L82.104 43.847L78.3252 44.2576L78.2473 43.5408ZM78.8387 41.0122L79.5415 40.9358L79.8667 43.9282L79.1638 44.0045L78.8387 41.0122ZM80.007 40.8782L80.7099 40.8018L81.035 43.7942L80.3322 43.8706L80.007 40.8782ZM76.6605 38.3971L77.4377 38.5521C77.3399 38.9476 77.2145 39.3485 77.0614 39.7548C76.9084 40.161 76.7369 40.5481 76.5469 40.9161C76.3564 41.2795 76.1546 41.6042 75.9416 41.8902C75.9067 41.8283 75.8579 41.7468 75.7953 41.6456C75.7373 41.5439 75.6723 41.443 75.6004 41.3429C75.5327 41.2376 75.4721 41.155 75.4186 41.0951C75.6006 40.8687 75.7697 40.611 75.926 40.3217C76.0865 40.0273 76.2287 39.7162 76.3527 39.3882C76.4767 39.0602 76.5793 38.7299 76.6605 38.3971ZM76.2033 40.4113L76.8973 39.5402L76.9058 39.5534L77.4865 44.8979L76.7001 44.9834L76.2033 40.4113ZM86.0008 38.1075L87.838 37.9079L87.9159 38.6247L86.0787 38.8243L86.0008 38.1075ZM85.6303 41.3726L88.6645 41.043L88.9465 43.6387L88.1393 43.7264L87.9336 41.8336L86.4792 41.9916L86.6871 43.9053L85.9146 43.9892L85.6303 41.3726ZM86.1165 42.9956L88.4826 42.7386L88.5605 43.4553L86.1944 43.7124L86.1165 42.9956ZM85.9965 37.3546L86.821 37.4903C86.7253 37.8199 86.6058 38.1451 86.4622 38.4658C86.3187 38.7865 86.1567 39.0881 85.9761 39.3706C85.8002 39.6526 85.6138 39.9028 85.4169 40.1214C85.3696 40.0749 85.3028 40.0211 85.2163 39.9601C85.1294 39.8944 85.0404 39.8314 84.9493 39.7708C84.8629 39.7098 84.7849 39.662 84.7155 39.6273C85.0089 39.3466 85.2676 39.0063 85.4917 38.6064C85.72 38.2014 85.8882 37.7841 85.9965 37.3546ZM87.6223 37.9314L87.7684 37.9155L87.9046 37.8725L88.4599 38.0586C88.3594 38.5155 88.2107 38.94 88.0139 39.3322C87.8217 39.724 87.5882 40.0803 87.3133 40.4012C87.0383 40.7221 86.7317 41.0112 86.3936 41.2686C86.06 41.5255 85.7039 41.7472 85.3252 41.9339C85.2636 41.842 85.1791 41.7338 85.0716 41.6094C84.9689 41.4844 84.8712 41.3847 84.7786 41.3103C85.1289 41.1643 85.4587 40.9806 85.7679 40.7592C86.0813 40.5327 86.3638 40.2814 86.6154 40.0052C86.8712 39.724 87.0871 39.4212 87.2631 39.097C87.4386 38.7681 87.5634 38.4259 87.6374 38.0705L87.6223 37.9314ZM86.0885 38.5909C86.2656 38.8814 86.5059 39.1699 86.8092 39.4561C87.1121 39.7377 87.4699 39.9852 87.8827 40.1985C88.3001 40.4113 88.76 40.5608 89.2622 40.6471C89.2167 40.7037 89.1637 40.7775 89.1032 40.8686C89.0473 40.9591 88.994 41.0518 88.9433 41.1465C88.8972 41.2407 88.8591 41.3223 88.8291 41.3912C88.3089 41.2694 87.8334 41.084 87.4026 40.8351C86.976 40.581 86.6018 40.2907 86.28 39.9642C85.9628 39.6372 85.7018 39.3089 85.497 38.979L86.0885 38.5909ZM82.4863 39.2005L84.9707 38.9306L85.0546 39.7031L82.5703 39.973L82.4863 39.2005ZM83.2484 37.6602L84.0348 37.5748L84.7448 44.1093L83.9584 44.1948L83.2484 37.6602ZM83.4492 39.6381L83.9468 39.746C83.9214 40.0304 83.8856 40.3277 83.8395 40.6378C83.7975 40.9428 83.7411 41.2446 83.6703 41.5434C83.599 41.8375 83.5187 42.1137 83.4294 42.3722C83.3402 42.6307 83.2402 42.8552 83.1294 43.0456C83.0802 42.9383 83.0083 42.817 82.9139 42.6817C82.8194 42.5465 82.7341 42.4314 82.658 42.3363C82.762 42.1701 82.8563 41.9792 82.9408 41.7634C83.0253 41.5477 83.1017 41.3212 83.1697 41.0837C83.242 40.8412 83.3 40.5978 83.3439 40.3537C83.3919 40.1043 83.427 39.8658 83.4492 39.6381ZM84.2625 39.93C84.3083 39.9625 84.3757 40.0209 84.4646 40.1052C84.5582 40.1889 84.6574 40.2814 84.7623 40.3826C84.8672 40.4839 84.9618 40.5769 85.0461 40.6616C85.1351 40.7458 85.1978 40.8047 85.2343 40.8383L84.8508 41.5207C84.7994 41.4371 84.7327 41.3411 84.6505 41.2327C84.5729 41.1237 84.4879 41.0109 84.3954 40.8942C84.3076 40.777 84.2205 40.6668 84.1342 40.5635C84.0525 40.4597 83.9824 40.3758 83.9238 40.3118L84.2625 39.93Z" fill="url(#paint2_linear_1805_937)"/>
<path d="M45.66 15.252H56.364V16.608H45.66V15.252ZM48.9 19.584H54.108V20.784H48.9V19.584ZM47.832 17.556H53.892V18.816H49.248V25.068H47.832V17.556ZM53.604 17.556H55.02V23.52C55.02 23.872 54.976 24.152 54.888 24.36C54.808 24.568 54.644 24.728 54.396 24.84C54.156 24.952 53.86 25.02 53.508 25.044C53.156 25.068 52.736 25.08 52.248 25.08C52.224 24.88 52.168 24.644 52.08 24.372C52 24.108 51.912 23.88 51.816 23.688C52.024 23.696 52.232 23.704 52.44 23.712C52.648 23.72 52.832 23.724 52.992 23.724C53.16 23.724 53.276 23.724 53.34 23.724C53.444 23.716 53.512 23.696 53.544 23.664C53.584 23.632 53.604 23.576 53.604 23.496V17.556ZM49.38 13.8L50.868 14.136C50.588 15.032 50.236 15.924 49.812 16.812C49.396 17.692 48.892 18.512 48.3 19.272C47.716 20.032 47.032 20.684 46.248 21.228C46.176 21.124 46.08 21.004 45.96 20.868C45.848 20.724 45.732 20.588 45.612 20.46C45.5 20.324 45.396 20.212 45.3 20.124C45.828 19.772 46.308 19.356 46.74 18.876C47.18 18.396 47.568 17.876 47.904 17.316C48.248 16.748 48.54 16.168 48.78 15.576C49.028 14.976 49.228 14.384 49.38 13.8ZM48.9 21.564H54.108V22.764H48.9V21.564ZM59.28 13.86H60.6V25.044H59.28V13.86ZM57.456 17.808H62.376V19.152H57.456V17.808ZM59.016 18.516L59.82 18.912C59.716 19.312 59.596 19.736 59.46 20.184C59.324 20.624 59.172 21.064 59.004 21.504C58.836 21.944 58.66 22.36 58.476 22.752C58.292 23.136 58.096 23.472 57.888 23.76C57.848 23.608 57.788 23.444 57.708 23.268C57.636 23.084 57.556 22.904 57.468 22.728C57.388 22.552 57.312 22.4 57.24 22.272C57.48 21.976 57.712 21.612 57.936 21.18C58.168 20.74 58.38 20.288 58.572 19.824C58.764 19.352 58.912 18.916 59.016 18.516ZM60.588 19.212C60.652 19.276 60.744 19.376 60.864 19.512C60.992 19.648 61.132 19.804 61.284 19.98C61.436 20.148 61.58 20.32 61.716 20.496C61.86 20.664 61.988 20.816 62.1 20.952C62.22 21.088 62.304 21.192 62.352 21.264L61.476 22.392C61.396 22.216 61.292 22.012 61.164 21.78C61.036 21.54 60.896 21.296 60.744 21.048C60.592 20.792 60.444 20.552 60.3 20.328C60.156 20.104 60.032 19.92 59.928 19.776L60.588 19.212ZM57.444 14.784L58.452 14.52C58.556 14.808 58.648 15.12 58.728 15.456C58.816 15.792 58.888 16.12 58.944 16.44C59 16.76 59.04 17.048 59.064 17.304L57.984 17.592C57.976 17.336 57.944 17.048 57.888 16.728C57.84 16.4 57.776 16.068 57.696 15.732C57.624 15.388 57.54 15.072 57.444 14.784ZM61.392 14.46L62.604 14.724C62.508 15.052 62.404 15.388 62.292 15.732C62.18 16.076 62.068 16.408 61.956 16.728C61.844 17.04 61.74 17.316 61.644 17.556L60.732 17.292C60.82 17.036 60.904 16.744 60.984 16.416C61.072 16.08 61.152 15.74 61.224 15.396C61.296 15.052 61.352 14.74 61.392 14.46ZM65.94 13.8H67.284V25.068H65.94V13.8ZM62.352 21.312L68.52 20.208L68.736 21.54L62.568 22.656L62.352 21.312ZM63.024 15.432L63.732 14.46C63.956 14.588 64.188 14.736 64.428 14.904C64.676 15.072 64.908 15.244 65.124 15.42C65.348 15.596 65.524 15.76 65.652 15.912L64.908 16.992C64.788 16.832 64.62 16.66 64.404 16.476C64.196 16.292 63.972 16.108 63.732 15.924C63.492 15.74 63.256 15.576 63.024 15.432ZM62.484 18.456L63.156 17.424C63.396 17.544 63.644 17.688 63.9 17.856C64.156 18.016 64.4 18.18 64.632 18.348C64.864 18.508 65.052 18.664 65.196 18.816L64.464 19.968C64.336 19.816 64.16 19.652 63.936 19.476C63.712 19.292 63.472 19.112 63.216 18.936C62.968 18.752 62.724 18.592 62.484 18.456ZM70.884 15.48C71.108 15.504 71.36 15.524 71.64 15.54C71.92 15.548 72.16 15.552 72.36 15.552H78.408C78.584 15.552 78.776 15.552 78.984 15.552C79.2 15.544 79.36 15.536 79.464 15.528C79.456 15.664 79.448 15.84 79.44 16.056C79.432 16.264 79.428 16.456 79.428 16.632V22.848C79.428 23.056 79.432 23.3 79.44 23.58C79.456 23.86 79.468 24.088 79.476 24.264H77.736C77.744 24.088 77.748 23.896 77.748 23.688C77.756 23.472 77.76 23.256 77.76 23.04V17.1H72.372C72.116 17.1 71.844 17.104 71.556 17.112C71.276 17.12 71.052 17.132 70.884 17.148V15.48ZM70.728 21.996C70.936 22.012 71.168 22.028 71.424 22.044C71.688 22.06 71.956 22.068 72.228 22.068H78.708V23.64H72.276C72.044 23.64 71.776 23.648 71.472 23.664C71.176 23.68 70.928 23.696 70.728 23.712V21.996ZM83.892 14.88C84.1 15.024 84.344 15.2 84.624 15.408C84.904 15.616 85.192 15.844 85.488 16.092C85.792 16.332 86.076 16.568 86.34 16.8C86.604 17.032 86.82 17.24 86.988 17.424L85.764 18.672C85.612 18.504 85.412 18.304 85.164 18.072C84.916 17.84 84.648 17.6 84.36 17.352C84.072 17.104 83.788 16.868 83.508 16.644C83.228 16.42 82.98 16.232 82.764 16.08L83.892 14.88ZM82.392 22.872C83.016 22.784 83.604 22.66 84.156 22.5C84.708 22.34 85.22 22.156 85.692 21.948C86.164 21.74 86.596 21.524 86.988 21.3C87.668 20.892 88.292 20.428 88.86 19.908C89.428 19.388 89.924 18.848 90.348 18.288C90.772 17.72 91.108 17.168 91.356 16.632L92.292 18.324C91.988 18.86 91.612 19.396 91.164 19.932C90.724 20.468 90.224 20.98 89.664 21.468C89.104 21.948 88.5 22.38 87.852 22.764C87.444 23.012 87.004 23.248 86.532 23.472C86.06 23.688 85.56 23.88 85.032 24.048C84.512 24.224 83.968 24.36 83.4 24.456L82.392 22.872ZM95.412 14.796C95.612 14.828 95.828 14.852 96.06 14.868C96.292 14.876 96.504 14.88 96.696 14.88C96.848 14.88 97.088 14.88 97.416 14.88C97.744 14.88 98.112 14.88 98.52 14.88C98.928 14.88 99.336 14.88 99.744 14.88C100.152 14.88 100.512 14.88 100.824 14.88C101.144 14.88 101.376 14.88 101.52 14.88C101.728 14.88 101.944 14.876 102.168 14.868C102.392 14.852 102.608 14.828 102.816 14.796V16.344C102.608 16.328 102.392 16.316 102.168 16.308C101.944 16.3 101.728 16.296 101.52 16.296C101.376 16.296 101.144 16.296 100.824 16.296C100.512 16.296 100.152 16.296 99.744 16.296C99.336 16.296 98.928 16.296 98.52 16.296C98.112 16.296 97.744 16.296 97.416 16.296C97.096 16.296 96.86 16.296 96.708 16.296C96.5 16.296 96.276 16.3 96.036 16.308C95.804 16.316 95.596 16.328 95.412 16.344V14.796ZM94.02 17.868C94.196 17.884 94.384 17.9 94.584 17.916C94.792 17.932 94.988 17.94 95.172 17.94C95.276 17.94 95.484 17.94 95.796 17.94C96.108 17.94 96.484 17.94 96.924 17.94C97.364 17.94 97.836 17.94 98.34 17.94C98.852 17.94 99.36 17.94 99.864 17.94C100.376 17.94 100.852 17.94 101.292 17.94C101.732 17.94 102.104 17.94 102.408 17.94C102.72 17.94 102.928 17.94 103.032 17.94C103.16 17.94 103.332 17.936 103.548 17.928C103.772 17.912 103.964 17.892 104.124 17.868V19.428C103.98 19.412 103.804 19.404 103.596 19.404C103.388 19.396 103.2 19.392 103.032 19.392C102.928 19.392 102.72 19.392 102.408 19.392C102.104 19.392 101.732 19.392 101.292 19.392C100.852 19.392 100.376 19.392 99.864 19.392C99.36 19.392 98.852 19.392 98.34 19.392C97.836 19.392 97.364 19.392 96.924 19.392C96.484 19.392 96.108 19.392 95.796 19.392C95.484 19.392 95.276 19.392 95.172 19.392C94.996 19.392 94.8 19.396 94.584 19.404C94.376 19.412 94.188 19.424 94.02 19.44V17.868ZM100.164 18.696C100.164 19.48 100.096 20.184 99.96 20.808C99.824 21.424 99.628 21.98 99.372 22.476C99.228 22.748 99.036 23.028 98.796 23.316C98.556 23.604 98.28 23.876 97.968 24.132C97.656 24.388 97.32 24.604 96.96 24.78L95.556 23.76C95.98 23.592 96.388 23.352 96.78 23.04C97.172 22.728 97.488 22.396 97.728 22.044C98.032 21.58 98.236 21.068 98.34 20.508C98.444 19.948 98.496 19.348 98.496 18.708L100.164 18.696ZM107.892 14.88C108.1 15.024 108.344 15.2 108.624 15.408C108.904 15.616 109.192 15.844 109.488 16.092C109.792 16.332 110.076 16.568 110.34 16.8C110.604 17.032 110.82 17.24 110.988 17.424L109.764 18.672C109.612 18.504 109.412 18.304 109.164 18.072C108.916 17.84 108.648 17.6 108.36 17.352C108.072 17.104 107.788 16.868 107.508 16.644C107.228 16.42 106.98 16.232 106.764 16.08L107.892 14.88ZM106.392 22.872C107.016 22.784 107.604 22.66 108.156 22.5C108.708 22.34 109.22 22.156 109.692 21.948C110.164 21.74 110.596 21.524 110.988 21.3C111.668 20.892 112.292 20.428 112.86 19.908C113.428 19.388 113.924 18.848 114.348 18.288C114.772 17.72 115.108 17.168 115.356 16.632L116.292 18.324C115.988 18.86 115.612 19.396 115.164 19.932C114.724 20.468 114.224 20.98 113.664 21.468C113.104 21.948 112.5 22.38 111.852 22.764C111.444 23.012 111.004 23.248 110.532 23.472C110.06 23.688 109.56 23.88 109.032 24.048C108.512 24.224 107.968 24.36 107.4 24.456L106.392 22.872ZM122.676 14.652C122.756 14.796 122.852 15.008 122.964 15.288C123.084 15.56 123.204 15.86 123.324 16.188C123.452 16.508 123.572 16.82 123.684 17.124C123.796 17.42 123.88 17.668 123.936 17.868L122.424 18.396C122.376 18.204 122.296 17.964 122.184 17.676C122.08 17.38 121.968 17.076 121.848 16.764C121.728 16.444 121.608 16.14 121.488 15.852C121.368 15.564 121.264 15.328 121.176 15.144L122.676 14.652ZM128.16 15.612C128.088 15.756 128.024 15.912 127.968 16.08C127.92 16.248 127.88 16.404 127.848 16.548C127.736 16.98 127.584 17.464 127.392 18C127.208 18.536 126.984 19.072 126.72 19.608C126.464 20.136 126.168 20.62 125.832 21.06C125.416 21.612 124.948 22.116 124.428 22.572C123.916 23.02 123.38 23.412 122.82 23.748C122.26 24.084 121.692 24.36 121.116 24.576L119.772 23.232C120.324 23.072 120.884 22.848 121.452 22.56C122.028 22.272 122.58 21.924 123.108 21.516C123.644 21.108 124.112 20.648 124.512 20.136C124.816 19.752 125.092 19.284 125.34 18.732C125.596 18.18 125.812 17.592 125.988 16.968C126.172 16.336 126.296 15.712 126.36 15.096L128.16 15.612ZM119.34 15.396C119.428 15.58 119.536 15.82 119.664 16.116C119.8 16.412 119.936 16.724 120.072 17.052C120.208 17.38 120.332 17.696 120.444 18C120.564 18.296 120.66 18.548 120.732 18.756L119.184 19.32C119.136 19.16 119.068 18.964 118.98 18.732C118.9 18.5 118.804 18.248 118.692 17.976C118.588 17.704 118.48 17.436 118.368 17.172C118.256 16.908 118.152 16.668 118.056 16.452C117.96 16.236 117.876 16.06 117.804 15.924L119.34 15.396ZM132.492 17.34V18.084H137.52V17.34H132.492ZM132.492 19.26V20.016H137.52V19.26H132.492ZM132.492 15.432V16.176H137.52V15.432H132.492ZM131.1 14.184H138.984V21.264H131.1V14.184ZM135.552 20.304H137.028V23.172C137.028 23.364 137.056 23.488 137.112 23.544C137.176 23.592 137.32 23.616 137.544 23.616C137.592 23.616 137.668 23.616 137.772 23.616C137.884 23.616 138.008 23.616 138.144 23.616C138.28 23.616 138.408 23.616 138.528 23.616C138.648 23.616 138.74 23.616 138.804 23.616C138.94 23.616 139.044 23.58 139.116 23.508C139.188 23.436 139.24 23.284 139.272 23.052C139.304 22.82 139.328 22.468 139.344 21.996C139.448 22.076 139.576 22.156 139.728 22.236C139.888 22.316 140.052 22.384 140.22 22.44C140.396 22.496 140.544 22.544 140.664 22.584C140.616 23.216 140.532 23.704 140.412 24.048C140.292 24.4 140.116 24.644 139.884 24.78C139.652 24.916 139.336 24.984 138.936 24.984C138.872 24.984 138.784 24.984 138.672 24.984C138.568 24.984 138.452 24.984 138.324 24.984C138.196 24.984 138.064 24.984 137.928 24.984C137.8 24.984 137.684 24.984 137.58 24.984C137.476 24.984 137.396 24.984 137.34 24.984C136.868 24.984 136.5 24.928 136.236 24.816C135.98 24.704 135.8 24.516 135.696 24.252C135.6 23.988 135.552 23.632 135.552 23.184V20.304ZM132.624 20.796H134.16C134.112 21.34 134.024 21.84 133.896 22.296C133.776 22.744 133.576 23.148 133.296 23.508C133.024 23.868 132.636 24.18 132.132 24.444C131.628 24.716 130.972 24.944 130.164 25.128C130.124 24.992 130.056 24.844 129.96 24.684C129.872 24.532 129.772 24.376 129.66 24.216C129.556 24.064 129.452 23.94 129.348 23.844C130.044 23.716 130.6 23.56 131.016 23.376C131.432 23.184 131.748 22.964 131.964 22.716C132.188 22.468 132.344 22.188 132.432 21.876C132.52 21.556 132.584 21.196 132.624 20.796ZM141.468 15.636H146.784V16.968H141.468V15.636ZM143.484 18.144H145.5V19.452H143.484V18.144ZM143.364 13.8H144.792V16.236H143.364V13.8ZM145.032 18.144H146.388C146.388 18.144 146.388 18.18 146.388 18.252C146.388 18.324 146.388 18.408 146.388 18.504C146.388 18.592 146.384 18.664 146.376 18.72C146.368 19.688 146.352 20.512 146.328 21.192C146.312 21.864 146.288 22.424 146.256 22.872C146.224 23.312 146.184 23.66 146.136 23.916C146.088 24.172 146.024 24.352 145.944 24.456C145.824 24.632 145.7 24.756 145.572 24.828C145.452 24.9 145.304 24.952 145.128 24.984C144.984 25.008 144.796 25.024 144.564 25.032C144.34 25.04 144.1 25.04 143.844 25.032C143.828 24.84 143.788 24.62 143.724 24.372C143.66 24.124 143.576 23.908 143.472 23.724C143.664 23.74 143.84 23.752 144 23.76C144.16 23.76 144.288 23.76 144.384 23.76C144.464 23.768 144.528 23.76 144.576 23.736C144.632 23.704 144.684 23.652 144.732 23.58C144.796 23.484 144.844 23.264 144.876 22.92C144.916 22.576 144.948 22.044 144.972 21.324C144.996 20.596 145.016 19.628 145.032 18.42V18.144ZM147.936 15.984H152.664V17.316H147.936V15.984ZM148.056 13.788L149.544 14.016C149.416 14.816 149.248 15.596 149.04 16.356C148.84 17.108 148.596 17.804 148.308 18.444C148.028 19.084 147.708 19.64 147.348 20.112C147.268 20.032 147.152 19.932 147 19.812C146.856 19.684 146.704 19.56 146.544 19.44C146.384 19.32 146.248 19.22 146.136 19.14C146.48 18.732 146.776 18.248 147.024 17.688C147.272 17.128 147.48 16.516 147.648 15.852C147.824 15.18 147.96 14.492 148.056 13.788ZM150.408 16.788L151.824 16.932C151.632 18.284 151.344 19.48 150.96 20.52C150.584 21.56 150.072 22.46 149.424 23.22C148.776 23.972 147.952 24.6 146.952 25.104C146.912 25 146.844 24.868 146.748 24.708C146.652 24.548 146.552 24.388 146.448 24.228C146.344 24.068 146.248 23.94 146.16 23.844C147.064 23.436 147.8 22.908 148.368 22.26C148.944 21.612 149.392 20.836 149.712 19.932C150.032 19.02 150.264 17.972 150.408 16.788ZM148.644 17.064C148.836 18.088 149.1 19.04 149.436 19.92C149.772 20.8 150.212 21.572 150.756 22.236C151.308 22.892 151.988 23.404 152.796 23.772C152.684 23.86 152.564 23.976 152.436 24.12C152.316 24.272 152.196 24.424 152.076 24.576C151.964 24.736 151.872 24.88 151.8 25.008C150.936 24.552 150.216 23.952 149.64 23.208C149.072 22.456 148.612 21.58 148.26 20.58C147.908 19.572 147.62 18.472 147.396 17.28L148.644 17.064ZM142.644 16.344H144.012V19.32C144.012 19.968 143.968 20.624 143.88 21.288C143.8 21.952 143.632 22.6 143.376 23.232C143.128 23.856 142.748 24.452 142.236 25.02C142.116 24.868 141.952 24.7 141.744 24.516C141.536 24.34 141.348 24.192 141.18 24.072C141.612 23.576 141.932 23.06 142.14 22.524C142.348 21.98 142.484 21.436 142.548 20.892C142.612 20.34 142.644 19.808 142.644 19.296V16.344ZM155.34 16.716V17.28H157.056V16.716H155.34ZM155.34 15.24V15.804H157.056V15.24H155.34ZM154.068 14.268H158.388V18.252H154.068V14.268ZM153.516 18.948H158.928V19.992H153.516V18.948ZM158.88 14.304H164.412V15.324H158.88V14.304ZM155.748 19.272H156.96V24.096L155.748 23.412V19.272ZM156.384 20.964H158.7V22.008H156.384V20.964ZM161.196 14.556L162.504 14.832C162.352 15.168 162.2 15.508 162.048 15.852C161.904 16.188 161.772 16.472 161.652 16.704L160.62 16.428C160.724 16.164 160.832 15.856 160.944 15.504C161.056 15.152 161.14 14.836 161.196 14.556ZM160.524 18.408V18.972H162.72V18.408H160.524ZM160.524 19.896V20.46H162.72V19.896H160.524ZM160.524 16.932V17.496H162.72V16.932H160.524ZM159.252 15.96H164.052V21.444H159.252V15.96ZM160.224 21.528L161.4 21.9C161.152 22.236 160.832 22.564 160.44 22.884C160.056 23.196 159.676 23.456 159.3 23.664C159.228 23.592 159.136 23.504 159.024 23.4C158.912 23.288 158.796 23.18 158.676 23.076C158.564 22.972 158.46 22.888 158.364 22.824C158.724 22.672 159.072 22.48 159.408 22.248C159.744 22.016 160.016 21.776 160.224 21.528ZM154.056 20.472H155.22C155.196 21.08 155.152 21.676 155.088 22.26C155.024 22.836 154.912 23.372 154.752 23.868C154.6 24.356 154.372 24.784 154.068 25.152C153.98 25 153.852 24.824 153.684 24.624C153.524 24.424 153.372 24.272 153.228 24.168C153.452 23.888 153.62 23.552 153.732 23.16C153.852 22.768 153.932 22.344 153.972 21.888C154.02 21.424 154.048 20.952 154.056 20.472ZM155.016 21.468C155.192 21.972 155.416 22.372 155.688 22.668C155.96 22.964 156.284 23.188 156.66 23.34C157.044 23.492 157.484 23.592 157.98 23.64C158.476 23.68 159.028 23.7 159.636 23.7C159.804 23.7 160.052 23.7 160.38 23.7C160.708 23.7 161.08 23.7 161.496 23.7C161.912 23.7 162.332 23.7 162.756 23.7C163.18 23.692 163.568 23.684 163.92 23.676C164.272 23.668 164.548 23.664 164.748 23.664C164.652 23.792 164.556 23.976 164.46 24.216C164.372 24.456 164.312 24.664 164.28 24.84H163.356H159.636C158.9 24.84 158.24 24.804 157.656 24.732C157.072 24.66 156.556 24.516 156.108 24.3C155.668 24.092 155.288 23.78 154.968 23.364C154.648 22.948 154.38 22.404 154.164 21.732L155.016 21.468ZM161.916 21.972L162.912 21.456C163.128 21.592 163.348 21.752 163.572 21.936C163.796 22.112 164.004 22.292 164.196 22.476C164.396 22.652 164.556 22.816 164.676 22.968L163.644 23.58C163.516 23.42 163.356 23.244 163.164 23.052C162.972 22.86 162.764 22.668 162.54 22.476C162.324 22.284 162.116 22.116 161.916 21.972Z" fill="url(#paint3_linear_1805_937)"/>
<path d="M109.96 30.62C109.753 30.92 109.507 31.23 109.22 31.55C108.933 31.8633 108.617 32.18 108.27 32.5C107.93 32.8133 107.567 33.1167 107.18 33.41C106.8 33.6967 106.403 33.96 105.99 34.2C105.943 34.1067 105.877 34 105.79 33.88C105.703 33.76 105.61 33.6433 105.51 33.53C105.417 33.4167 105.323 33.32 105.23 33.24C105.657 33.0067 106.073 32.74 106.48 32.44C106.887 32.1333 107.267 31.8067 107.62 31.46C107.98 31.1133 108.303 30.77 108.59 30.43C108.877 30.0833 109.113 29.7533 109.3 29.44H110.51C110.783 29.8267 111.083 30.2033 111.41 30.57C111.743 30.93 112.093 31.27 112.46 31.59C112.833 31.91 113.217 32.2 113.61 32.46C114.01 32.72 114.407 32.9433 114.8 33.13C114.647 33.2767 114.503 33.4433 114.37 33.63C114.237 33.8167 114.117 34.0033 114.01 34.19C113.623 33.9633 113.237 33.7067 112.85 33.42C112.47 33.1333 112.097 32.8333 111.73 32.52C111.37 32.2 111.037 31.88 110.73 31.56C110.43 31.2333 110.173 30.92 109.96 30.62ZM107.85 32.57H112.11V33.68H107.85V32.57ZM106.47 34.63H112.26V35.77H106.47V34.63ZM112.06 34.63H112.24L112.45 34.58L113.41 34.85C113.243 35.2633 113.057 35.7067 112.85 36.18C112.643 36.6467 112.43 37.1167 112.21 37.59C111.997 38.0567 111.783 38.5033 111.57 38.93L110.29 38.58C110.45 38.2667 110.613 37.9367 110.78 37.59C110.953 37.2367 111.12 36.8867 111.28 36.54C111.44 36.1933 111.587 35.8667 111.72 35.56C111.86 35.2533 111.973 34.99 112.06 34.77V34.63ZM119.44 30.13C119.4 30.27 119.357 30.4367 119.31 30.63C119.27 30.8167 119.24 30.9667 119.22 31.08C119.173 31.3067 119.113 31.5833 119.04 31.91C118.973 32.2367 118.9 32.5833 118.82 32.95C118.74 33.31 118.657 33.66 118.57 34C118.477 34.3467 118.367 34.7267 118.24 35.14C118.12 35.5533 117.987 35.97 117.84 36.39C117.7 36.81 117.557 37.2133 117.41 37.6C117.263 37.9867 117.12 38.33 116.98 38.63L115.58 38.16C115.733 37.9067 115.89 37.5967 116.05 37.23C116.217 36.8633 116.38 36.4733 116.54 36.06C116.7 35.64 116.847 35.2233 116.98 34.81C117.113 34.39 117.227 34.0067 117.32 33.66C117.38 33.42 117.44 33.1767 117.5 32.93C117.56 32.6833 117.613 32.4433 117.66 32.21C117.713 31.9767 117.757 31.76 117.79 31.56C117.83 31.3533 117.86 31.1767 117.88 31.03C117.9 30.8433 117.913 30.6567 117.92 30.47C117.927 30.2833 117.923 30.13 117.91 30.01L119.44 30.13ZM116.89 31.63C117.297 31.63 117.72 31.61 118.16 31.57C118.6 31.53 119.043 31.4733 119.49 31.4C119.937 31.32 120.38 31.23 120.82 31.13V32.38C120.407 32.48 119.967 32.5633 119.5 32.63C119.033 32.6967 118.573 32.75 118.12 32.79C117.667 32.8233 117.25 32.84 116.87 32.84C116.63 32.84 116.413 32.8367 116.22 32.83C116.027 32.8167 115.84 32.8067 115.66 32.8L115.63 31.55C115.89 31.5767 116.113 31.5967 116.3 31.61C116.487 31.6233 116.683 31.63 116.89 31.63ZM120.03 33.16C120.31 33.1267 120.62 33.1033 120.96 33.09C121.3 33.07 121.63 33.06 121.95 33.06C122.237 33.06 122.527 33.0667 122.82 33.08C123.12 33.0933 123.417 33.1167 123.71 33.15L123.68 34.35C123.433 34.3167 123.16 34.2867 122.86 34.26C122.567 34.2333 122.267 34.22 121.96 34.22C121.613 34.22 121.283 34.23 120.97 34.25C120.657 34.2633 120.343 34.29 120.03 34.33V33.16ZM120.57 35.67C120.53 35.81 120.497 35.9567 120.47 36.11C120.443 36.2633 120.43 36.3933 120.43 36.5C120.43 36.6133 120.453 36.7167 120.5 36.81C120.547 36.9033 120.62 36.9867 120.72 37.06C120.82 37.1267 120.957 37.18 121.13 37.22C121.31 37.2533 121.533 37.27 121.8 37.27C122.133 37.27 122.473 37.2533 122.82 37.22C123.167 37.1867 123.52 37.1367 123.88 37.07L123.83 38.34C123.55 38.38 123.24 38.4133 122.9 38.44C122.56 38.4733 122.19 38.49 121.79 38.49C120.95 38.49 120.307 38.35 119.86 38.07C119.42 37.79 119.2 37.4 119.2 36.9C119.2 36.6667 119.217 36.4333 119.25 36.2C119.29 35.9667 119.33 35.7533 119.37 35.56L120.57 35.67ZM122.64 30.42C122.727 30.54 122.817 30.6833 122.91 30.85C123.01 31.0167 123.107 31.1833 123.2 31.35C123.293 31.5167 123.37 31.6633 123.43 31.79L122.63 32.14C122.563 32 122.487 31.8467 122.4 31.68C122.313 31.5133 122.223 31.3467 122.13 31.18C122.037 31.0133 121.943 30.87 121.85 30.75L122.64 30.42ZM123.82 29.97C123.913 30.09 124.01 30.2367 124.11 30.41C124.21 30.5767 124.307 30.7433 124.4 30.91C124.5 31.07 124.577 31.21 124.63 31.33L123.84 31.67C123.733 31.4567 123.607 31.22 123.46 30.96C123.313 30.7 123.17 30.4767 123.03 30.29L123.82 29.97ZM132.78 30.05C132.767 30.1567 132.757 30.27 132.75 30.39C132.743 30.5033 132.737 30.6167 132.73 30.73C132.723 30.8233 132.72 30.9667 132.72 31.16C132.727 31.3467 132.73 31.56 132.73 31.8C132.73 32.0333 132.73 32.2733 132.73 32.52C132.73 32.76 132.73 32.9833 132.73 33.19C132.737 33.3967 132.74 33.5567 132.74 33.67C132.74 34.2633 132.717 34.8033 132.67 35.29C132.63 35.77 132.537 36.2133 132.39 36.62C132.25 37.0267 132.033 37.4033 131.74 37.75C131.453 38.0967 131.06 38.43 130.56 38.75L129.41 37.84C129.597 37.76 129.803 37.6467 130.03 37.5C130.257 37.3467 130.437 37.1933 130.57 37.04C130.763 36.84 130.92 36.63 131.04 36.41C131.16 36.19 131.253 35.9467 131.32 35.68C131.393 35.4133 131.44 35.1167 131.46 34.79C131.487 34.4633 131.5 34.0867 131.5 33.66C131.5 33.48 131.5 33.2533 131.5 32.98C131.5 32.7067 131.497 32.4233 131.49 32.13C131.483 31.8367 131.477 31.5667 131.47 31.32C131.463 31.0667 131.453 30.8733 131.44 30.74C131.433 30.6133 131.417 30.4867 131.39 30.36C131.37 30.2333 131.35 30.13 131.33 30.05H132.78ZM128.84 32C129 32.02 129.163 32.04 129.33 32.06C129.497 32.0733 129.663 32.0867 129.83 32.1C130.003 32.1067 130.177 32.11 130.35 32.11C130.783 32.11 131.237 32.1 131.71 32.08C132.183 32.06 132.64 32.03 133.08 31.99C133.52 31.9433 133.903 31.89 134.23 31.83L134.22 33.13C133.907 33.1633 133.537 33.1967 133.11 33.23C132.683 33.2567 132.233 33.28 131.76 33.3C131.293 33.3133 130.833 33.32 130.38 33.32C130.24 33.32 130.08 33.3167 129.9 33.31C129.72 33.3033 129.54 33.2967 129.36 33.29C129.18 33.2833 129.007 33.2767 128.84 33.27V32ZM127.81 30.22C127.77 30.34 127.727 30.48 127.68 30.64C127.633 30.7933 127.597 30.9233 127.57 31.03C127.51 31.3033 127.447 31.6333 127.38 32.02C127.313 32.4 127.257 32.7967 127.21 33.21C127.163 33.6233 127.14 34.03 127.14 34.43C127.14 34.8233 127.173 35.1733 127.24 35.48C127.307 35.3267 127.383 35.1433 127.47 34.93C127.557 34.71 127.64 34.5067 127.72 34.32L128.34 34.72C128.247 35.0067 128.153 35.3033 128.06 35.61C127.973 35.91 127.897 36.1967 127.83 36.47C127.763 36.7367 127.707 36.9667 127.66 37.16C127.64 37.2333 127.623 37.32 127.61 37.42C127.603 37.5133 127.6 37.59 127.6 37.65C127.6 37.6967 127.6 37.76 127.6 37.84C127.607 37.92 127.613 37.9933 127.62 38.06L126.51 38.17C126.437 37.97 126.353 37.6967 126.26 37.35C126.173 36.9967 126.097 36.61 126.03 36.19C125.97 35.7633 125.94 35.3433 125.94 34.93C125.94 34.3833 125.957 33.8567 125.99 33.35C126.03 32.8433 126.077 32.3833 126.13 31.97C126.183 31.55 126.227 31.2067 126.26 30.94C126.287 30.8 126.303 30.6533 126.31 30.5C126.317 30.34 126.323 30.1967 126.33 30.07L127.81 30.22ZM136.29 30.14L137.39 29.71C137.537 29.93 137.683 30.1733 137.83 30.44C137.977 30.7 138.107 30.9533 138.22 31.2C138.34 31.4467 138.43 31.6733 138.49 31.88L137.3 32.37C137.253 32.17 137.177 31.9433 137.07 31.69C136.963 31.43 136.84 31.1667 136.7 30.9C136.567 30.6267 136.43 30.3733 136.29 30.14ZM142.5 29.66L143.8 30.06C143.667 30.3333 143.527 30.6067 143.38 30.88C143.24 31.1467 143.1 31.4033 142.96 31.65C142.82 31.89 142.69 32.1033 142.57 32.29L141.47 31.91C141.597 31.71 141.723 31.48 141.85 31.22C141.977 30.96 142.097 30.6933 142.21 30.42C142.33 30.1467 142.427 29.8933 142.5 29.66ZM136.08 32.63H144.02V33.82H136.08V32.63ZM135.47 35.02H144.54V36.23H135.47V35.02ZM139.34 29.49H140.6V38.88H139.34V29.49ZM146.72 32.07H148.7V32.87H146.72V32.07ZM147.05 29.53H148.16V31.1H147.05V29.53ZM146.53 35.54H149.23V38.3H146.53V37.38H148.2V36.46H146.53V35.54ZM145.43 30.34H149.8V31.96H148.8V31.27H146.39V31.96H145.43V30.34ZM145.99 35.54H147V38.71H145.99V35.54ZM148.51 32.07H148.7L148.87 32.02L149.55 32.33C149.337 32.9567 149.04 33.52 148.66 34.02C148.28 34.5133 147.843 34.9433 147.35 35.31C146.857 35.67 146.333 35.9633 145.78 36.19C145.72 36.0633 145.63 35.9133 145.51 35.74C145.39 35.5667 145.277 35.43 145.17 35.33C145.663 35.1567 146.133 34.9167 146.58 34.61C147.033 34.3033 147.427 33.95 147.76 33.55C148.093 33.1433 148.343 32.7033 148.51 32.23V32.07ZM147.02 31.36L147.99 31.61C147.77 32.13 147.473 32.6133 147.1 33.06C146.733 33.5 146.343 33.8667 145.93 34.16C145.883 34.0933 145.813 34.0167 145.72 33.93C145.627 33.8433 145.53 33.7567 145.43 33.67C145.33 33.5767 145.243 33.5067 145.17 33.46C145.563 33.2133 145.923 32.9067 146.25 32.54C146.583 32.1733 146.84 31.78 147.02 31.36ZM146.12 33.66L146.75 32.94C146.997 33.1 147.267 33.2767 147.56 33.47C147.853 33.6633 148.147 33.86 148.44 34.06C148.733 34.26 149.01 34.4533 149.27 34.64C149.53 34.8267 149.747 34.9933 149.92 35.14L149.24 35.99C149.073 35.83 148.863 35.6533 148.61 35.46C148.363 35.2667 148.097 35.0633 147.81 34.85C147.523 34.6367 147.233 34.4267 146.94 34.22C146.647 34.0133 146.373 33.8267 146.12 33.66ZM149.83 29.9H154.53V30.92H149.83V29.9ZM151.21 33.93V34.55H153.19V33.93H151.21ZM151.21 35.38V36.01H153.19V35.38H151.21ZM151.21 32.49V33.1H153.19V32.49H151.21ZM150.13 31.6H154.32V36.9H150.13V31.6ZM151.59 30.44L152.9 30.6C152.8 30.9 152.693 31.2 152.58 31.5C152.473 31.7933 152.373 32.0467 152.28 32.26L151.29 32.07C151.33 31.91 151.367 31.7367 151.4 31.55C151.44 31.3567 151.477 31.1633 151.51 30.97C151.543 30.7767 151.57 30.6 151.59 30.44ZM150.96 36.93L151.92 37.55C151.747 37.7167 151.54 37.8833 151.3 38.05C151.06 38.2233 150.81 38.38 150.55 38.52C150.29 38.6667 150.037 38.7867 149.79 38.88C149.697 38.7733 149.577 38.6467 149.43 38.5C149.283 38.3533 149.147 38.2267 149.02 38.12C149.26 38.0333 149.503 37.9233 149.75 37.79C149.997 37.6567 150.227 37.5133 150.44 37.36C150.653 37.2067 150.827 37.0633 150.96 36.93ZM152.36 37.54L153.23 36.98C153.41 37.1067 153.603 37.25 153.81 37.41C154.017 37.5633 154.213 37.7167 154.4 37.87C154.587 38.0233 154.74 38.1633 154.86 38.29L153.93 38.9C153.83 38.7733 153.69 38.63 153.51 38.47C153.33 38.31 153.137 38.1467 152.93 37.98C152.73 37.8133 152.54 37.6667 152.36 37.54ZM159.49 35.43L159.22 32.01L159.17 30.52H160.83L160.78 32.01L160.51 35.43H159.49ZM160 38.09C159.747 38.09 159.537 38.0067 159.37 37.84C159.203 37.6733 159.12 37.4633 159.12 37.21C159.12 36.95 159.203 36.7367 159.37 36.57C159.537 36.4033 159.747 36.32 160 36.32C160.253 36.32 160.463 36.4033 160.63 36.57C160.797 36.7367 160.88 36.95 160.88 37.21C160.88 37.4633 160.797 37.6733 160.63 37.84C160.463 38.0067 160.253 38.09 160 38.09Z" fill="#3F3D56"/>
</g>
<rect x="0.5" y="0.5" width="209" height="89" rx="1.5" stroke="url(#paint4_linear_1805_937)"/>
<defs>
<radialGradient id="paint0_radial_1805_937" cx="0" cy="0" r="1" gradientUnits="userSpaceOnUse" gradientTransform="translate(105 45) rotate(90) scale(80 186.667)">
<stop offset="0.5" stop-color="#FD9E2E" stop-opacity="0.05"/>
<stop offset="1" stop-color="#FD9E2E" stop-opacity="0.8"/>
</radialGradient>
<linearGradient id="paint1_linear_1805_937" x1="37" y1="63" x2="173" y2="63" gradientUnits="userSpaceOnUse">
<stop stop-color="#E17723"/>
<stop offset="1" stop-color="#FD9E2E"/>
</linearGradient>
<linearGradient id="paint2_linear_1805_937" x1="47.5941" y1="45.0044" x2="89.3484" y2="40.4677" gradientUnits="userSpaceOnUse">
<stop stop-color="#E17723"/>
<stop offset="1" stop-color="#FD9E2E"/>
</linearGradient>
<linearGradient id="paint3_linear_1805_937" x1="45" y1="20" x2="165" y2="20" gradientUnits="userSpaceOnUse">
<stop stop-color="#E17723"/>
<stop offset="1" stop-color="#FD9E2E"/>
</linearGradient>
<linearGradient id="paint4_linear_1805_937" x1="0" y1="45" x2="210" y2="45" gradientUnits="userSpaceOnUse">
<stop stop-color="#E17723"/>
<stop offset="1" stop-color="#FD9E2E"/>
</linearGradient>
<clipPath id="clip0_1805_937">
<rect width="210" height="90" rx="2" fill="white"/>
</clipPath>
</defs>
</svg>
