<svg width="152" height="44" viewBox="0 0 152 44" fill="none" xmlns="http://www.w3.org/2000/svg">
<path d="M2 0.5H150C150.828 0.500001 151.5 1.17157 151.5 2V42C151.5 42.8284 150.828 43.5 150 43.5H2C1.17157 43.5 0.5 42.8284 0.5 42V2L0.507812 1.84668C0.58461 1.09028 1.22334 0.5 2 0.5Z" fill="white"/>
<path d="M2 0.5H150C150.828 0.500001 151.5 1.17157 151.5 2V42C151.5 42.8284 150.828 43.5 150 43.5H2C1.17157 43.5 0.5 42.8284 0.5 42V2L0.507812 1.84668C0.58461 1.09028 1.22334 0.5 2 0.5Z" stroke="url(#paint0_linear_1805_1076)"/>
<path d="M30 6L33.7457 9.44595L39.1844 7.21793L40.6669 11.3572L46.9706 10.6863L45.9642 14.8887L52.1731 15.8771L48.8311 19.5028L54 22L48.8311 24.4972L52.1731 28.1229L45.9642 29.1113L46.9706 33.3137L40.6669 32.6428L39.1844 36.7821L33.7457 34.5541L30 38L26.2543 34.5541L20.8156 36.7821L19.3331 32.6428L13.0294 33.3137L14.0358 29.1113L7.82689 28.1229L11.1689 24.4972L6 22L11.1689 19.5028L7.82689 15.8771L14.0358 14.8887L13.0294 10.6863L19.3331 11.3572L20.8156 7.21793L26.2543 9.44595L30 6Z" fill="url(#paint1_linear_1805_1076)"/>
<path d="M17.968 19.096C17.8027 19.336 17.6053 19.584 17.376 19.84C17.1467 20.0907 16.8933 20.344 16.616 20.6C16.344 20.8507 16.0533 21.0933 15.744 21.328C15.44 21.5573 15.1227 21.768 14.792 21.96C14.7547 21.8853 14.7013 21.8 14.632 21.704C14.5627 21.608 14.488 21.5147 14.408 21.424C14.3333 21.3333 14.2587 21.256 14.184 21.192C14.5253 21.0053 14.8587 20.792 15.184 20.552C15.5093 20.3067 15.8133 20.0453 16.096 19.768C16.384 19.4907 16.6427 19.216 16.872 18.944C17.1013 18.6667 17.2907 18.4027 17.44 18.152H18.408C18.6267 18.4613 18.8667 18.7627 19.128 19.056C19.3947 19.344 19.6747 19.616 19.968 19.872C20.2667 20.128 20.5733 20.36 20.888 20.568C21.208 20.776 21.5253 20.9547 21.84 21.104C21.7173 21.2213 21.6027 21.3547 21.496 21.504C21.3893 21.6533 21.2933 21.8027 21.208 21.952C20.8987 21.7707 20.5893 21.5653 20.28 21.336C19.976 21.1067 19.6773 20.8667 19.384 20.616C19.096 20.36 18.8293 20.104 18.584 19.848C18.344 19.5867 18.1387 19.336 17.968 19.096ZM16.28 20.656H19.688V21.544H16.28V20.656ZM15.176 22.304H19.808V23.216H15.176V22.304ZM19.648 22.304H19.792L19.96 22.264L20.728 22.48C20.5947 22.8107 20.4453 23.1653 20.28 23.544C20.1147 23.9173 19.944 24.2933 19.768 24.672C19.5973 25.0453 19.4267 25.4027 19.256 25.744L18.232 25.464C18.36 25.2133 18.4907 24.9493 18.624 24.672C18.7627 24.3893 18.896 24.1093 19.024 23.832C19.152 23.5547 19.2693 23.2933 19.376 23.048C19.488 22.8027 19.5787 22.592 19.648 22.416V22.304ZM25.552 18.704C25.52 18.816 25.4853 18.9493 25.448 19.104C25.416 19.2533 25.392 19.3733 25.376 19.464C25.3387 19.6453 25.2907 19.8667 25.232 20.128C25.1787 20.3893 25.12 20.6667 25.056 20.96C24.992 21.248 24.9253 21.528 24.856 21.8C24.7813 22.0773 24.6933 22.3813 24.592 22.712C24.496 23.0427 24.3893 23.376 24.272 23.712C24.16 24.048 24.0453 24.3707 23.928 24.68C23.8107 24.9893 23.696 25.264 23.584 25.504L22.464 25.128C22.5867 24.9253 22.712 24.6773 22.84 24.384C22.9733 24.0907 23.104 23.7787 23.232 23.448C23.36 23.112 23.4773 22.7787 23.584 22.448C23.6907 22.112 23.7813 21.8053 23.856 21.528C23.904 21.336 23.952 21.1413 24 20.944C24.048 20.7467 24.0907 20.5547 24.128 20.368C24.1707 20.1813 24.2053 20.008 24.232 19.848C24.264 19.6827 24.288 19.5413 24.304 19.424C24.32 19.2747 24.3307 19.1253 24.336 18.976C24.3413 18.8267 24.3387 18.704 24.328 18.608L25.552 18.704ZM23.512 19.904C23.8373 19.904 24.176 19.888 24.528 19.856C24.88 19.824 25.2347 19.7787 25.592 19.72C25.9493 19.656 26.304 19.584 26.656 19.504V20.504C26.3253 20.584 25.9733 20.6507 25.6 20.704C25.2267 20.7573 24.8587 20.8 24.496 20.832C24.1333 20.8587 23.8 20.872 23.496 20.872C23.304 20.872 23.1307 20.8693 22.976 20.864C22.8213 20.8533 22.672 20.8453 22.528 20.84L22.504 19.84C22.712 19.8613 22.8907 19.8773 23.04 19.888C23.1893 19.8987 23.3467 19.904 23.512 19.904ZM26.024 21.128C26.248 21.1013 26.496 21.0827 26.768 21.072C27.04 21.056 27.304 21.048 27.56 21.048C27.7893 21.048 28.0213 21.0533 28.256 21.064C28.496 21.0747 28.7333 21.0933 28.968 21.12L28.944 22.08C28.7467 22.0533 28.528 22.0293 28.288 22.008C28.0533 21.9867 27.8133 21.976 27.568 21.976C27.2907 21.976 27.0267 21.984 26.776 22C26.5253 22.0107 26.2747 22.032 26.024 22.064V21.128ZM26.456 23.136C26.424 23.248 26.3973 23.3653 26.376 23.488C26.3547 23.6107 26.344 23.7147 26.344 23.8C26.344 23.8907 26.3627 23.9733 26.4 24.048C26.4373 24.1227 26.496 24.1893 26.576 24.248C26.656 24.3013 26.7653 24.344 26.904 24.376C27.048 24.4027 27.2267 24.416 27.44 24.416C27.7067 24.416 27.9787 24.4027 28.256 24.376C28.5333 24.3493 28.816 24.3093 29.104 24.256L29.064 25.272C28.84 25.304 28.592 25.3307 28.32 25.352C28.048 25.3787 27.752 25.392 27.432 25.392C26.76 25.392 26.2453 25.28 25.888 25.056C25.536 24.832 25.36 24.52 25.36 24.12C25.36 23.9333 25.3733 23.7467 25.4 23.56C25.432 23.3733 25.464 23.2027 25.496 23.048L26.456 23.136ZM28.112 18.936C28.1813 19.032 28.2533 19.1467 28.328 19.28C28.408 19.4133 28.4853 19.5467 28.56 19.68C28.6347 19.8133 28.696 19.9307 28.744 20.032L28.104 20.312C28.0507 20.2 27.9893 20.0773 27.92 19.944C27.8507 19.8107 27.7787 19.6773 27.704 19.544C27.6293 19.4107 27.5547 19.296 27.48 19.2L28.112 18.936ZM29.056 18.576C29.1307 18.672 29.208 18.7893 29.288 18.928C29.368 19.0613 29.4453 19.1947 29.52 19.328C29.6 19.456 29.6613 19.568 29.704 19.664L29.072 19.936C28.9867 19.7653 28.8853 19.576 28.768 19.368C28.6507 19.16 28.536 18.9813 28.424 18.832L29.056 18.576ZM36.224 18.64C36.2133 18.7253 36.2053 18.816 36.2 18.912C36.1947 19.0027 36.1893 19.0933 36.184 19.184C36.1787 19.2587 36.176 19.3733 36.176 19.528C36.1813 19.6773 36.184 19.848 36.184 20.04C36.184 20.2267 36.184 20.4187 36.184 20.616C36.184 20.808 36.184 20.9867 36.184 21.152C36.1893 21.3173 36.192 21.4453 36.192 21.536C36.192 22.0107 36.1733 22.4427 36.136 22.832C36.104 23.216 36.0293 23.5707 35.912 23.896C35.8 24.2213 35.6267 24.5227 35.392 24.8C35.1627 25.0773 34.848 25.344 34.448 25.6L33.528 24.872C33.6773 24.808 33.8427 24.7173 34.024 24.6C34.2053 24.4773 34.3493 24.3547 34.456 24.232C34.6107 24.072 34.736 23.904 34.832 23.728C34.928 23.552 35.0027 23.3573 35.056 23.144C35.1147 22.9307 35.152 22.6933 35.168 22.432C35.1893 22.1707 35.2 21.8693 35.2 21.528C35.2 21.384 35.2 21.2027 35.2 20.984C35.2 20.7653 35.1973 20.5387 35.192 20.304C35.1867 20.0693 35.1813 19.8533 35.176 19.656C35.1707 19.4533 35.1627 19.2987 35.152 19.192C35.1467 19.0907 35.1333 18.9893 35.112 18.888C35.096 18.7867 35.08 18.704 35.064 18.64H36.224ZM33.072 20.2C33.2 20.216 33.3307 20.232 33.464 20.248C33.5973 20.2587 33.7307 20.2693 33.864 20.28C34.0027 20.2853 34.1413 20.288 34.28 20.288C34.6267 20.288 34.9893 20.28 35.368 20.264C35.7467 20.248 36.112 20.224 36.464 20.192C36.816 20.1547 37.1227 20.112 37.384 20.064L37.376 21.104C37.1253 21.1307 36.8293 21.1573 36.488 21.184C36.1467 21.2053 35.7867 21.224 35.408 21.24C35.0347 21.2507 34.6667 21.256 34.304 21.256C34.192 21.256 34.064 21.2533 33.92 21.248C33.776 21.2427 33.632 21.2373 33.488 21.232C33.344 21.2267 33.2053 21.2213 33.072 21.216V20.2ZM32.248 18.776C32.216 18.872 32.1813 18.984 32.144 19.112C32.1067 19.2347 32.0773 19.3387 32.056 19.424C32.008 19.6427 31.9573 19.9067 31.904 20.216C31.8507 20.52 31.8053 20.8373 31.768 21.168C31.7307 21.4987 31.712 21.824 31.712 22.144C31.712 22.4587 31.7387 22.7387 31.792 22.984C31.8453 22.8613 31.9067 22.7147 31.976 22.544C32.0453 22.368 32.112 22.2053 32.176 22.056L32.672 22.376C32.5973 22.6053 32.5227 22.8427 32.448 23.088C32.3787 23.328 32.3173 23.5573 32.264 23.776C32.2107 23.9893 32.1653 24.1733 32.128 24.328C32.112 24.3867 32.0987 24.456 32.088 24.536C32.0827 24.6107 32.08 24.672 32.08 24.72C32.08 24.7573 32.08 24.808 32.08 24.872C32.0853 24.936 32.0907 24.9947 32.096 25.048L31.208 25.136C31.1493 24.976 31.0827 24.7573 31.008 24.48C30.9387 24.1973 30.8773 23.888 30.824 23.552C30.776 23.2107 30.752 22.8747 30.752 22.544C30.752 22.1067 30.7653 21.6853 30.792 21.28C30.824 20.8747 30.8613 20.5067 30.904 20.176C30.9467 19.84 30.9813 19.5653 31.008 19.352C31.0293 19.24 31.0427 19.1227 31.048 19C31.0533 18.872 31.0587 18.7573 31.064 18.656L32.248 18.776ZM41.592 22.944L41.376 20.208L41.336 19.016H42.664L42.624 20.208L42.408 22.944H41.592ZM42 25.072C41.7973 25.072 41.6293 25.0053 41.496 24.872C41.3627 24.7387 41.296 24.5707 41.296 24.368C41.296 24.16 41.3627 23.9893 41.496 23.856C41.6293 23.7227 41.7973 23.656 42 23.656C42.2027 23.656 42.3707 23.7227 42.504 23.856C42.6373 23.9893 42.704 24.16 42.704 24.368C42.704 24.5707 42.6373 24.7387 42.504 24.872C42.3707 25.0053 42.2027 25.072 42 25.072Z" fill="white"/>
<path d="M56.55 9.71H65.47V10.84H56.55V9.71ZM59.25 13.32H63.59V14.32H59.25V13.32ZM58.36 11.63H63.41V12.68H59.54V17.89H58.36V11.63ZM63.17 11.63H64.35V16.6C64.35 16.8933 64.3133 17.1267 64.24 17.3C64.1733 17.4733 64.0367 17.6067 63.83 17.7C63.63 17.7933 63.3833 17.85 63.09 17.87C62.7967 17.89 62.4467 17.9 62.04 17.9C62.02 17.7333 61.9733 17.5367 61.9 17.31C61.8333 17.09 61.76 16.9 61.68 16.74C61.8533 16.7467 62.0267 16.7533 62.2 16.76C62.3733 16.7667 62.5267 16.77 62.66 16.77C62.8 16.77 62.8967 16.77 62.95 16.77C63.0367 16.7633 63.0933 16.7467 63.12 16.72C63.1533 16.6933 63.17 16.6467 63.17 16.58V11.63ZM59.65 8.5L60.89 8.78C60.6567 9.52667 60.3633 10.27 60.01 11.01C59.6633 11.7433 59.2433 12.4267 58.75 13.06C58.2633 13.6933 57.6933 14.2367 57.04 14.69C56.98 14.6033 56.9 14.5033 56.8 14.39C56.7067 14.27 56.61 14.1567 56.51 14.05C56.4167 13.9367 56.33 13.8433 56.25 13.77C56.69 13.4767 57.09 13.13 57.45 12.73C57.8167 12.33 58.14 11.8967 58.42 11.43C58.7067 10.9567 58.95 10.4733 59.15 9.98C59.3567 9.48 59.5233 8.98667 59.65 8.5ZM59.25 14.97H63.59V15.97H59.25V14.97ZM67.9 8.55H69V17.87H67.9V8.55ZM66.38 11.84H70.48V12.96H66.38V11.84ZM67.68 12.43L68.35 12.76C68.2633 13.0933 68.1633 13.4467 68.05 13.82C67.9367 14.1867 67.81 14.5533 67.67 14.92C67.53 15.2867 67.3833 15.6333 67.23 15.96C67.0767 16.28 66.9133 16.56 66.74 16.8C66.7067 16.6733 66.6567 16.5367 66.59 16.39C66.53 16.2367 66.4633 16.0867 66.39 15.94C66.3233 15.7933 66.26 15.6667 66.2 15.56C66.4 15.3133 66.5933 15.01 66.78 14.65C66.9733 14.2833 67.15 13.9067 67.31 13.52C67.47 13.1267 67.5933 12.7633 67.68 12.43ZM68.99 13.01C69.0433 13.0633 69.12 13.1467 69.22 13.26C69.3267 13.3733 69.4433 13.5033 69.57 13.65C69.6967 13.79 69.8167 13.9333 69.93 14.08C70.05 14.22 70.1567 14.3467 70.25 14.46C70.35 14.5733 70.42 14.66 70.46 14.72L69.73 15.66C69.6633 15.5133 69.5767 15.3433 69.47 15.15C69.3633 14.95 69.2467 14.7467 69.12 14.54C68.9933 14.3267 68.87 14.1267 68.75 13.94C68.63 13.7533 68.5267 13.6 68.44 13.48L68.99 13.01ZM66.37 9.32L67.21 9.1C67.2967 9.34 67.3733 9.6 67.44 9.88C67.5133 10.16 67.5733 10.4333 67.62 10.7C67.6667 10.9667 67.7 11.2067 67.72 11.42L66.82 11.66C66.8133 11.4467 66.7867 11.2067 66.74 10.94C66.7 10.6667 66.6467 10.39 66.58 10.11C66.52 9.82333 66.45 9.56 66.37 9.32ZM69.66 9.05L70.67 9.27C70.59 9.54333 70.5033 9.82333 70.41 10.11C70.3167 10.3967 70.2233 10.6733 70.13 10.94C70.0367 11.2 69.95 11.43 69.87 11.63L69.11 11.41C69.1833 11.1967 69.2533 10.9533 69.32 10.68C69.3933 10.4 69.46 10.1167 69.52 9.83C69.58 9.54333 69.6267 9.28333 69.66 9.05ZM73.45 8.5H74.57V17.89H73.45V8.5ZM70.46 14.76L75.6 13.84L75.78 14.95L70.64 15.88L70.46 14.76ZM71.02 9.86L71.61 9.05C71.7967 9.15667 71.99 9.28 72.19 9.42C72.3967 9.56 72.59 9.70333 72.77 9.85C72.9567 9.99667 73.1033 10.1333 73.21 10.26L72.59 11.16C72.49 11.0267 72.35 10.8833 72.17 10.73C71.9967 10.5767 71.81 10.4233 71.61 10.27C71.41 10.1167 71.2133 9.98 71.02 9.86ZM70.57 12.38L71.13 11.52C71.33 11.62 71.5367 11.74 71.75 11.88C71.9633 12.0133 72.1667 12.15 72.36 12.29C72.5533 12.4233 72.71 12.5533 72.83 12.68L72.22 13.64C72.1133 13.5133 71.9667 13.3767 71.78 13.23C71.5933 13.0767 71.3933 12.9267 71.18 12.78C70.9733 12.6267 70.77 12.4933 70.57 12.38ZM76.58 14.97H81.25V15.82H76.58V14.97ZM76.36 10.21H81.36V11.08H76.36V10.21ZM78.34 9.51H79.43V16.68H78.34V9.51ZM76.3 16.56C76.72 16.5333 77.2 16.5 77.74 16.46C78.28 16.42 78.85 16.3767 79.45 16.33C80.0567 16.2767 80.66 16.2233 81.26 16.17L81.27 17.08C80.7033 17.14 80.13 17.2 79.55 17.26C78.9767 17.32 78.4233 17.3733 77.89 17.42C77.3633 17.4733 76.88 17.5233 76.44 17.57L76.3 16.56ZM77.57 13.38V13.83H80.21V13.38H77.57ZM77.57 12.22V12.67H80.21V12.22H77.57ZM76.62 11.47H81.2V14.58H76.62V11.47ZM80.72 8.56L81.24 9.45C80.82 9.53667 80.3467 9.61333 79.82 9.68C79.3 9.74 78.7667 9.79 78.22 9.83C77.6733 9.86333 77.15 9.88667 76.65 9.9C76.63 9.77333 76.5933 9.63 76.54 9.47C76.4933 9.30333 76.44 9.16 76.38 9.04C76.7533 9.02 77.1367 8.99667 77.53 8.97C77.9233 8.93667 78.31 8.9 78.69 8.86C79.0767 8.82 79.44 8.77667 79.78 8.73C80.1267 8.67667 80.44 8.62 80.72 8.56ZM81.35 10.77H84.82V11.87H81.35V10.77ZM84.33 10.77H85.48C85.48 10.77 85.48 10.8033 85.48 10.87C85.48 10.9367 85.48 11.0133 85.48 11.1C85.48 11.18 85.48 11.2467 85.48 11.3C85.4533 12.3267 85.4267 13.2 85.4 13.92C85.3733 14.6333 85.3433 15.2233 85.31 15.69C85.2833 16.15 85.24 16.51 85.18 16.77C85.1267 17.03 85.06 17.2167 84.98 17.33C84.8667 17.4967 84.7467 17.6133 84.62 17.68C84.5 17.7533 84.3567 17.8067 84.19 17.84C84.0367 17.8667 83.85 17.88 83.63 17.88C83.41 17.8867 83.18 17.8867 82.94 17.88C82.9333 17.7133 82.8967 17.52 82.83 17.3C82.77 17.08 82.6933 16.89 82.6 16.73C82.8133 16.75 83.01 16.7633 83.19 16.77C83.37 16.7767 83.5067 16.78 83.6 16.78C83.68 16.78 83.7467 16.7667 83.8 16.74C83.8533 16.7133 83.9033 16.67 83.95 16.61C84.0033 16.53 84.05 16.3767 84.09 16.15C84.13 15.9167 84.1633 15.5867 84.19 15.16C84.2233 14.7267 84.25 14.17 84.27 13.49C84.2967 12.81 84.3167 11.9867 84.33 11.02V10.77ZM82.31 8.67H83.46C83.46 9.52333 83.45 10.3333 83.43 11.1C83.4167 11.8667 83.3733 12.59 83.3 13.27C83.2333 13.9433 83.1167 14.57 82.95 15.15C82.79 15.7233 82.5633 16.2467 82.27 16.72C81.9767 17.1933 81.6 17.61 81.14 17.97C81.08 17.87 81 17.7633 80.9 17.65C80.8067 17.5367 80.7067 17.4267 80.6 17.32C80.5 17.22 80.4 17.1367 80.3 17.07C80.72 16.75 81.06 16.3833 81.32 15.97C81.58 15.55 81.78 15.0867 81.92 14.58C82.06 14.0667 82.1567 13.5067 82.21 12.9C82.2633 12.2867 82.2933 11.63 82.3 10.93C82.3067 10.2233 82.31 9.47 82.31 8.67ZM87.48 16.17H94.5V17.31H87.48V16.17ZM86.5 9.1H95.51V10.22H86.5V9.1ZM86.81 10.88H87.98V17.9H86.81V10.88ZM94.04 10.88H95.2V17.88H94.04V10.88ZM90.36 9.43H91.57V11.48H90.36V9.43ZM90.45 11.48H91.48V15.21H90.45V11.48ZM89.59 13.76V14.61H92.35V13.76H89.59ZM89.59 12.01V12.85H92.35V12.01H89.59ZM88.61 11.03H93.38V15.59H88.61V11.03ZM97.57 9.9C97.7567 9.92 97.9667 9.93667 98.2 9.95C98.4333 9.95667 98.6333 9.96 98.8 9.96H103.84C103.987 9.96 104.147 9.96 104.32 9.96C104.5 9.95333 104.633 9.94667 104.72 9.94C104.713 10.0533 104.707 10.2 104.7 10.38C104.693 10.5533 104.69 10.7133 104.69 10.86V16.04C104.69 16.2133 104.693 16.4167 104.7 16.65C104.713 16.8833 104.723 17.0733 104.73 17.22H103.28C103.287 17.0733 103.29 16.9133 103.29 16.74C103.297 16.56 103.3 16.38 103.3 16.2V11.25H98.81C98.5967 11.25 98.37 11.2533 98.13 11.26C97.8967 11.2667 97.71 11.2767 97.57 11.29V9.9ZM97.44 15.33C97.6133 15.3433 97.8067 15.3567 98.02 15.37C98.24 15.3833 98.4633 15.39 98.69 15.39H104.09V16.7H98.73C98.5367 16.7 98.3133 16.7067 98.06 16.72C97.8133 16.7333 97.6067 16.7467 97.44 16.76V15.33ZM108.41 9.4C108.583 9.52 108.787 9.66667 109.02 9.84C109.253 10.0133 109.493 10.2033 109.74 10.41C109.993 10.61 110.23 10.8067 110.45 11C110.67 11.1933 110.85 11.3667 110.99 11.52L109.97 12.56C109.843 12.42 109.677 12.2533 109.47 12.06C109.263 11.8667 109.04 11.6667 108.8 11.46C108.56 11.2533 108.323 11.0567 108.09 10.87C107.857 10.6833 107.65 10.5267 107.47 10.4L108.41 9.4ZM107.16 16.06C107.68 15.9867 108.17 15.8833 108.63 15.75C109.09 15.6167 109.517 15.4633 109.91 15.29C110.303 15.1167 110.663 14.9367 110.99 14.75C111.557 14.41 112.077 14.0233 112.55 13.59C113.023 13.1567 113.437 12.7067 113.79 12.24C114.143 11.7667 114.423 11.3067 114.63 10.86L115.41 12.27C115.157 12.7167 114.843 13.1633 114.47 13.61C114.103 14.0567 113.687 14.4833 113.22 14.89C112.753 15.29 112.25 15.65 111.71 15.97C111.37 16.1767 111.003 16.3733 110.61 16.56C110.217 16.74 109.8 16.9 109.36 17.04C108.927 17.1867 108.473 17.3 108 17.38L107.16 16.06ZM118.01 9.33C118.177 9.35667 118.357 9.37667 118.55 9.39C118.743 9.39667 118.92 9.4 119.08 9.4C119.207 9.4 119.407 9.4 119.68 9.4C119.953 9.4 120.26 9.4 120.6 9.4C120.94 9.4 121.28 9.4 121.62 9.4C121.96 9.4 122.26 9.4 122.52 9.4C122.787 9.4 122.98 9.4 123.1 9.4C123.273 9.4 123.453 9.39667 123.64 9.39C123.827 9.37667 124.007 9.35667 124.18 9.33V10.62C124.007 10.6067 123.827 10.5967 123.64 10.59C123.453 10.5833 123.273 10.58 123.1 10.58C122.98 10.58 122.787 10.58 122.52 10.58C122.26 10.58 121.96 10.58 121.62 10.58C121.28 10.58 120.94 10.58 120.6 10.58C120.26 10.58 119.953 10.58 119.68 10.58C119.413 10.58 119.217 10.58 119.09 10.58C118.917 10.58 118.73 10.5833 118.53 10.59C118.337 10.5967 118.163 10.6067 118.01 10.62V9.33ZM116.85 11.89C116.997 11.9033 117.153 11.9167 117.32 11.93C117.493 11.9433 117.657 11.95 117.81 11.95C117.897 11.95 118.07 11.95 118.33 11.95C118.59 11.95 118.903 11.95 119.27 11.95C119.637 11.95 120.03 11.95 120.45 11.95C120.877 11.95 121.3 11.95 121.72 11.95C122.147 11.95 122.543 11.95 122.91 11.95C123.277 11.95 123.587 11.95 123.84 11.95C124.1 11.95 124.273 11.95 124.36 11.95C124.467 11.95 124.61 11.9467 124.79 11.94C124.977 11.9267 125.137 11.91 125.27 11.89V13.19C125.15 13.1767 125.003 13.17 124.83 13.17C124.657 13.1633 124.5 13.16 124.36 13.16C124.273 13.16 124.1 13.16 123.84 13.16C123.587 13.16 123.277 13.16 122.91 13.16C122.543 13.16 122.147 13.16 121.72 13.16C121.3 13.16 120.877 13.16 120.45 13.16C120.03 13.16 119.637 13.16 119.27 13.16C118.903 13.16 118.59 13.16 118.33 13.16C118.07 13.16 117.897 13.16 117.81 13.16C117.663 13.16 117.5 13.1633 117.32 13.17C117.147 13.1767 116.99 13.1867 116.85 13.2V11.89ZM121.97 12.58C121.97 13.2333 121.913 13.82 121.8 14.34C121.687 14.8533 121.523 15.3167 121.31 15.73C121.19 15.9567 121.03 16.19 120.83 16.43C120.63 16.67 120.4 16.8967 120.14 17.11C119.88 17.3233 119.6 17.5033 119.3 17.65L118.13 16.8C118.483 16.66 118.823 16.46 119.15 16.2C119.477 15.94 119.74 15.6633 119.94 15.37C120.193 14.9833 120.363 14.5567 120.45 14.09C120.537 13.6233 120.58 13.1233 120.58 12.59L121.97 12.58ZM128.41 9.4C128.583 9.52 128.787 9.66667 129.02 9.84C129.253 10.0133 129.493 10.2033 129.74 10.41C129.993 10.61 130.23 10.8067 130.45 11C130.67 11.1933 130.85 11.3667 130.99 11.52L129.97 12.56C129.843 12.42 129.677 12.2533 129.47 12.06C129.263 11.8667 129.04 11.6667 128.8 11.46C128.56 11.2533 128.323 11.0567 128.09 10.87C127.857 10.6833 127.65 10.5267 127.47 10.4L128.41 9.4ZM127.16 16.06C127.68 15.9867 128.17 15.8833 128.63 15.75C129.09 15.6167 129.517 15.4633 129.91 15.29C130.303 15.1167 130.663 14.9367 130.99 14.75C131.557 14.41 132.077 14.0233 132.55 13.59C133.023 13.1567 133.437 12.7067 133.79 12.24C134.143 11.7667 134.423 11.3067 134.63 10.86L135.41 12.27C135.157 12.7167 134.843 13.1633 134.47 13.61C134.103 14.0567 133.687 14.4833 133.22 14.89C132.753 15.29 132.25 15.65 131.71 15.97C131.37 16.1767 131.003 16.3733 130.61 16.56C130.217 16.74 129.8 16.9 129.36 17.04C128.927 17.1867 128.473 17.3 128 17.38L127.16 16.06ZM140.73 9.21C140.797 9.33 140.877 9.50667 140.97 9.74C141.07 9.96667 141.17 10.2167 141.27 10.49C141.377 10.7567 141.477 11.0167 141.57 11.27C141.663 11.5167 141.733 11.7233 141.78 11.89L140.52 12.33C140.48 12.17 140.413 11.97 140.32 11.73C140.233 11.4833 140.14 11.23 140.04 10.97C139.94 10.7033 139.84 10.45 139.74 10.21C139.64 9.97 139.553 9.77333 139.48 9.62L140.73 9.21ZM145.3 10.01C145.24 10.13 145.187 10.26 145.14 10.4C145.1 10.54 145.067 10.67 145.04 10.79C144.947 11.15 144.82 11.5533 144.66 12C144.507 12.4467 144.32 12.8933 144.1 13.34C143.887 13.78 143.64 14.1833 143.36 14.55C143.013 15.01 142.623 15.43 142.19 15.81C141.763 16.1833 141.317 16.51 140.85 16.79C140.383 17.07 139.91 17.3 139.43 17.48L138.31 16.36C138.77 16.2267 139.237 16.04 139.71 15.8C140.19 15.56 140.65 15.27 141.09 14.93C141.537 14.59 141.927 14.2067 142.26 13.78C142.513 13.46 142.743 13.07 142.95 12.61C143.163 12.15 143.343 11.66 143.49 11.14C143.643 10.6133 143.747 10.0933 143.8 9.58L145.3 10.01ZM137.95 9.83C138.023 9.98333 138.113 10.1833 138.22 10.43C138.333 10.6767 138.447 10.9367 138.56 11.21C138.673 11.4833 138.777 11.7467 138.87 12C138.97 12.2467 139.05 12.4567 139.11 12.63L137.82 13.1C137.78 12.9667 137.723 12.8033 137.65 12.61C137.583 12.4167 137.503 12.2067 137.41 11.98C137.323 11.7533 137.233 11.53 137.14 11.31C137.047 11.09 136.96 10.89 136.88 10.71C136.8 10.53 136.73 10.3833 136.67 10.27L137.95 9.83Z" fill="#FD652E"/>
<path d="M73.18 23.38H66.94V26.14C67.2067 25.8467 67.58 25.6067 68.06 25.42C68.54 25.2333 69.06 25.14 69.62 25.14C70.62 25.14 71.4467 25.3667 72.1 25.82C72.7667 26.2733 73.2533 26.86 73.56 27.58C73.8667 28.3 74.02 29.08 74.02 29.92C74.02 31.48 73.58 32.72 72.7 33.64C71.82 34.5467 70.58 35 68.98 35C67.9133 35 66.9867 34.82 66.2 34.46C65.4133 34.0867 64.8067 33.5733 64.38 32.92C63.9533 32.2667 63.72 31.5133 63.68 30.66H67.02C67.1 31.0733 67.2933 31.42 67.6 31.7C67.9067 31.9667 68.3267 32.1 68.86 32.1C69.4867 32.1 69.9533 31.9 70.26 31.5C70.5667 31.1 70.72 30.5667 70.72 29.9C70.72 29.2467 70.56 28.7467 70.24 28.4C69.92 28.0533 69.4533 27.88 68.84 27.88C68.3867 27.88 68.0133 27.9933 67.72 28.22C67.4267 28.4333 67.2333 28.72 67.14 29.08H63.84V20.38H73.18V23.38ZM75.9078 27.5C75.9078 25.2067 76.3478 23.4 77.2278 22.08C78.1211 20.76 79.5545 20.1 81.5278 20.1C83.5011 20.1 84.9278 20.76 85.8078 22.08C86.7011 23.4 87.1478 25.2067 87.1478 27.5C87.1478 29.82 86.7011 31.64 85.8078 32.96C84.9278 34.28 83.5011 34.94 81.5278 34.94C79.5545 34.94 78.1211 34.28 77.2278 32.96C76.3478 31.64 75.9078 29.82 75.9078 27.5ZM83.7878 27.5C83.7878 26.1533 83.6411 25.12 83.3478 24.4C83.0545 23.6667 82.4478 23.3 81.5278 23.3C80.6078 23.3 80.0011 23.6667 79.7078 24.4C79.4145 25.12 79.2678 26.1533 79.2678 27.5C79.2678 28.4067 79.3211 29.16 79.4278 29.76C79.5345 30.3467 79.7478 30.8267 80.0678 31.2C80.4011 31.56 80.8878 31.74 81.5278 31.74C82.1678 31.74 82.6478 31.56 82.9678 31.2C83.3011 30.8267 83.5211 30.3467 83.6278 29.76C83.7345 29.16 83.7878 28.4067 83.7878 27.5ZM92.6547 29.12C91.948 29.12 91.3214 28.9333 90.7747 28.56C90.228 28.1867 89.8014 27.6467 89.4947 26.94C89.188 26.22 89.0347 25.3667 89.0347 24.38C89.0347 23.3933 89.188 22.5533 89.4947 21.86C89.8014 21.1533 90.228 20.62 90.7747 20.26C91.3214 19.8867 91.948 19.7 92.6547 19.7C93.7214 19.7 94.588 20.1067 95.2547 20.92C95.9347 21.7333 96.2747 22.8867 96.2747 24.38C96.2747 25.3667 96.1214 26.22 95.8147 26.94C95.508 27.6467 95.0814 28.1867 94.5347 28.56C94.0014 28.9333 93.3747 29.12 92.6547 29.12ZM92.6547 27.44C93.0947 27.44 93.4614 27.2067 93.7547 26.74C94.0614 26.26 94.2147 25.4733 94.2147 24.38C94.2147 23.2867 94.0614 22.5133 93.7547 22.06C93.4614 21.5933 93.0947 21.36 92.6547 21.36C92.228 21.36 91.8614 21.5933 91.5547 22.06C91.2614 22.5133 91.1147 23.2867 91.1147 24.38C91.1147 25.4733 91.2614 26.26 91.5547 26.74C91.8614 27.2067 92.228 27.44 92.6547 27.44ZM103.475 35.1C102.768 35.1 102.141 34.9133 101.595 34.54C101.048 34.1667 100.615 33.6267 100.295 32.92C99.988 32.2133 99.8347 31.3667 99.8347 30.38C99.8347 29.38 99.988 28.5333 100.295 27.84C100.615 27.1333 101.048 26.6 101.595 26.24C102.141 25.8667 102.768 25.68 103.475 25.68C104.181 25.68 104.808 25.8667 105.355 26.24C105.901 26.6 106.328 27.1333 106.635 27.84C106.941 28.5333 107.095 29.38 107.095 30.38C107.095 31.3667 106.941 32.2133 106.635 32.92C106.328 33.6267 105.901 34.1667 105.355 34.54C104.808 34.9133 104.181 35.1 103.475 35.1ZM103.475 33.44C103.915 33.44 104.281 33.2 104.575 32.72C104.868 32.24 105.015 31.46 105.015 30.38C105.015 29.2733 104.868 28.4933 104.575 28.04C104.281 27.5867 103.915 27.36 103.475 27.36C103.035 27.36 102.661 27.5867 102.355 28.04C102.061 28.4933 101.915 29.2733 101.915 30.38C101.915 31.46 102.061 32.24 102.355 32.72C102.661 33.2 103.035 33.44 103.475 33.44ZM93.1547 35.1L101.235 19.7H102.995L94.8947 35.1H93.1547ZM115.935 35.14C114.615 35.14 113.401 34.8333 112.295 34.22C111.201 33.6067 110.328 32.7533 109.675 31.66C109.035 30.5533 108.715 29.3133 108.715 27.94C108.715 26.5667 109.035 25.3333 109.675 24.24C110.328 23.1467 111.201 22.2933 112.295 21.68C113.401 21.0667 114.615 20.76 115.935 20.76C117.255 20.76 118.461 21.0667 119.555 21.68C120.661 22.2933 121.528 23.1467 122.155 24.24C122.795 25.3333 123.115 26.5667 123.115 27.94C123.115 29.3133 122.795 30.5533 122.155 31.66C121.515 32.7533 120.648 33.6067 119.555 34.22C118.461 34.8333 117.255 35.14 115.935 35.14ZM115.935 32.02C117.055 32.02 117.948 31.6467 118.615 30.9C119.295 30.1533 119.635 29.1667 119.635 27.94C119.635 26.7 119.295 25.7133 118.615 24.98C117.948 24.2333 117.055 23.86 115.935 23.86C114.801 23.86 113.895 24.2267 113.215 24.96C112.548 25.6933 112.215 26.6867 112.215 27.94C112.215 29.18 112.548 30.1733 113.215 30.92C113.895 31.6533 114.801 32.02 115.935 32.02ZM134.157 20.96V23.7H128.437V26.66H132.717V29.32H128.437V35H125.017V20.96H134.157ZM145.095 20.96V23.7H139.375V26.66H143.655V29.32H139.375V35H135.955V20.96H145.095Z" fill="#FD652E"/>
<defs>
<linearGradient id="paint0_linear_1805_1076" x1="0" y1="22" x2="152" y2="22" gradientUnits="userSpaceOnUse">
<stop stop-color="#E17723"/>
<stop offset="1" stop-color="#FD9E2E"/>
</linearGradient>
<linearGradient id="paint1_linear_1805_1076" x1="6" y1="22" x2="54" y2="22" gradientUnits="userSpaceOnUse">
<stop stop-color="#E17723"/>
<stop offset="1" stop-color="#FD9E2E"/>
</linearGradient>
</defs>
</svg>
